%TF.GenerationSoftware,KiCad,Pcbnew,10.0.1*%
%TF.CreationDate,2026-06-07T19:57:13+03:00*%
%TF.ProjectId,Magister_work_v1,4d616769-7374-4657-925f-776f726b5f76,rev?*%
%TF.SameCoordinates,Original*%
%TF.FileFunction,Paste,Top*%
%TF.FilePolarity,Positive*%
%FSLAX46Y46*%
G04 Gerber Fmt 4.6, Leading zero omitted, Abs format (unit mm)*
G04 Created by KiCad (PCBNEW 10.0.1) date 2026-06-07 19:57:13*
%MOMM*%
%LPD*%
G01*
G04 APERTURE LIST*
G04 Aperture macros list*
%AMRoundRect*
0 Rectangle with rounded corners*
0 $1 Rounding radius*
0 $2 $3 $4 $5 $6 $7 $8 $9 X,Y pos of 4 corners*
0 Add a 4 corners polygon primitive as box body*
4,1,4,$2,$3,$4,$5,$6,$7,$8,$9,$2,$3,0*
0 Add four circle primitives for the rounded corners*
1,1,$1+$1,$2,$3*
1,1,$1+$1,$4,$5*
1,1,$1+$1,$6,$7*
1,1,$1+$1,$8,$9*
0 Add four rect primitives between the rounded corners*
20,1,$1+$1,$2,$3,$4,$5,0*
20,1,$1+$1,$4,$5,$6,$7,0*
20,1,$1+$1,$6,$7,$8,$9,0*
20,1,$1+$1,$8,$9,$2,$3,0*%
G04 Aperture macros list end*
%ADD10RoundRect,0.250000X0.475000X-0.337500X0.475000X0.337500X-0.475000X0.337500X-0.475000X-0.337500X0*%
%ADD11RoundRect,0.200000X0.750000X0.200000X-0.750000X0.200000X-0.750000X-0.200000X0.750000X-0.200000X0*%
%ADD12RoundRect,0.250000X-0.450000X0.350000X-0.450000X-0.350000X0.450000X-0.350000X0.450000X0.350000X0*%
%ADD13RoundRect,0.250000X0.337500X0.475000X-0.337500X0.475000X-0.337500X-0.475000X0.337500X-0.475000X0*%
%ADD14RoundRect,0.250000X-0.337500X-0.475000X0.337500X-0.475000X0.337500X0.475000X-0.337500X0.475000X0*%
%ADD15RoundRect,0.200000X0.200000X-0.750000X0.200000X0.750000X-0.200000X0.750000X-0.200000X-0.750000X0*%
%ADD16RoundRect,0.250000X-0.475000X0.337500X-0.475000X-0.337500X0.475000X-0.337500X0.475000X0.337500X0*%
%ADD17RoundRect,0.250000X-0.900000X1.500000X-0.900000X-1.500000X0.900000X-1.500000X0.900000X1.500000X0*%
%ADD18RoundRect,0.250000X-0.350000X-0.450000X0.350000X-0.450000X0.350000X0.450000X-0.350000X0.450000X0*%
%ADD19RoundRect,0.250000X0.400000X1.450000X-0.400000X1.450000X-0.400000X-1.450000X0.400000X-1.450000X0*%
%ADD20RoundRect,0.200000X-0.750000X-0.200000X0.750000X-0.200000X0.750000X0.200000X-0.750000X0.200000X0*%
%ADD21RoundRect,0.075000X0.350000X0.075000X-0.350000X0.075000X-0.350000X-0.075000X0.350000X-0.075000X0*%
%ADD22RoundRect,0.075000X-0.075000X0.350000X-0.075000X-0.350000X0.075000X-0.350000X0.075000X0.350000X0*%
%ADD23RoundRect,0.250000X0.350000X0.450000X-0.350000X0.450000X-0.350000X-0.450000X0.350000X-0.450000X0*%
%ADD24RoundRect,0.250000X0.450000X-0.350000X0.450000X0.350000X-0.450000X0.350000X-0.450000X-0.350000X0*%
%ADD25RoundRect,0.250000X-0.350000X0.275000X-0.350000X-0.275000X0.350000X-0.275000X0.350000X0.275000X0*%
%ADD26RoundRect,0.075000X-0.700000X-0.075000X0.700000X-0.075000X0.700000X0.075000X-0.700000X0.075000X0*%
%ADD27RoundRect,0.075000X-0.075000X-0.700000X0.075000X-0.700000X0.075000X0.700000X-0.075000X0.700000X0*%
%ADD28R,2.000000X1.500000*%
%ADD29RoundRect,0.250000X-1.500000X-0.900000X1.500000X-0.900000X1.500000X0.900000X-1.500000X0.900000X0*%
%ADD30RoundRect,0.200000X-0.200000X0.750000X-0.200000X-0.750000X0.200000X-0.750000X0.200000X0.750000X0*%
%ADD31RoundRect,0.087500X0.425000X0.087500X-0.425000X0.087500X-0.425000X-0.087500X0.425000X-0.087500X0*%
%ADD32RoundRect,0.250000X0.400000X0.300000X-0.400000X0.300000X-0.400000X-0.300000X0.400000X-0.300000X0*%
%ADD33RoundRect,0.162500X0.617500X0.162500X-0.617500X0.162500X-0.617500X-0.162500X0.617500X-0.162500X0*%
%ADD34R,0.350000X0.500000*%
G04 APERTURE END LIST*
D10*
%TO.C,C2*%
X83750000Y-35997500D03*
X83750000Y-33922500D03*
%TD*%
D11*
%TO.C,U2*%
X43250000Y-54400000D03*
X43250000Y-52500000D03*
X40250000Y-53450000D03*
%TD*%
D12*
%TO.C,R7*%
X46000000Y-86750000D03*
X46000000Y-88750000D03*
%TD*%
D13*
%TO.C,C27*%
X56730000Y-102115000D03*
X54655000Y-102115000D03*
%TD*%
%TO.C,C33*%
X80018750Y-92518750D03*
X77943750Y-92518750D03*
%TD*%
D14*
%TO.C,C14*%
X75675000Y-66250000D03*
X77750000Y-66250000D03*
%TD*%
D15*
%TO.C,VD6*%
X105550000Y-60460000D03*
X107450000Y-60460000D03*
X106500000Y-57460000D03*
%TD*%
D16*
%TO.C,C10*%
X50020000Y-43500000D03*
X50020000Y-45575000D03*
%TD*%
%TO.C,C25*%
X85300000Y-50712500D03*
X85300000Y-52787500D03*
%TD*%
%TO.C,C11*%
X46500000Y-43500000D03*
X46500000Y-45575000D03*
%TD*%
D17*
%TO.C,D8*%
X39000000Y-94800000D03*
X39000000Y-100200000D03*
%TD*%
D14*
%TO.C,C23*%
X92462500Y-46000000D03*
X94537500Y-46000000D03*
%TD*%
D18*
%TO.C,R11*%
X44000000Y-63500000D03*
X46000000Y-63500000D03*
%TD*%
D16*
%TO.C,C4*%
X70000000Y-36462500D03*
X70000000Y-38537500D03*
%TD*%
D19*
%TO.C,F1*%
X104225000Y-38000000D03*
X99775000Y-38000000D03*
%TD*%
D10*
%TO.C,C28*%
X44000000Y-98000000D03*
X44000000Y-95925000D03*
%TD*%
D20*
%TO.C,VD2*%
X38000000Y-103550000D03*
X38000000Y-105450000D03*
X41000000Y-104500000D03*
%TD*%
D21*
%TO.C,DD2*%
X94250000Y-52250000D03*
X94250000Y-51750000D03*
X94250000Y-51250000D03*
X94250000Y-50750000D03*
X94250000Y-50250000D03*
X94250000Y-49750000D03*
D22*
X93550000Y-49050000D03*
X93050000Y-49050000D03*
X92550000Y-49050000D03*
X92050000Y-49050000D03*
X91550000Y-49050000D03*
X91050000Y-49050000D03*
D21*
X90350000Y-49750000D03*
X90350000Y-50250000D03*
X90350000Y-50750000D03*
X90350000Y-51250000D03*
X90350000Y-51750000D03*
X90350000Y-52250000D03*
D22*
X91050000Y-52950000D03*
X91550000Y-52950000D03*
X92050000Y-52950000D03*
X92550000Y-52950000D03*
X93050000Y-52950000D03*
X93550000Y-52950000D03*
%TD*%
D13*
%TO.C,C24*%
X87337500Y-46750000D03*
X85262500Y-46750000D03*
%TD*%
D23*
%TO.C,R5*%
X96750000Y-55750000D03*
X94750000Y-55750000D03*
%TD*%
D16*
%TO.C,C7*%
X60500000Y-32580000D03*
X60500000Y-34655000D03*
%TD*%
D10*
%TO.C,C3*%
X79750000Y-35997500D03*
X79750000Y-33922500D03*
%TD*%
D14*
%TO.C,C32*%
X106962500Y-112500000D03*
X109037500Y-112500000D03*
%TD*%
D16*
%TO.C,C9*%
X54000000Y-43500000D03*
X54000000Y-45575000D03*
%TD*%
D18*
%TO.C,R6*%
X88750000Y-43500000D03*
X90750000Y-43500000D03*
%TD*%
D20*
%TO.C,VD3*%
X38000000Y-89050000D03*
X38000000Y-90950000D03*
X41000000Y-90000000D03*
%TD*%
D24*
%TO.C,R8*%
X46000000Y-93500000D03*
X46000000Y-91500000D03*
%TD*%
D16*
%TO.C,C19*%
X86000000Y-95962500D03*
X86000000Y-98037500D03*
%TD*%
D14*
%TO.C,C12*%
X59962500Y-78500000D03*
X62037500Y-78500000D03*
%TD*%
D15*
%TO.C,VD1*%
X47730000Y-107615000D03*
X49630000Y-107615000D03*
X48680000Y-104615000D03*
%TD*%
D18*
%TO.C,R4*%
X90500000Y-55750000D03*
X92500000Y-55750000D03*
%TD*%
D20*
%TO.C,VD9*%
X37500000Y-75240000D03*
X37500000Y-77140000D03*
X40500000Y-76190000D03*
%TD*%
D18*
%TO.C,R3*%
X61000000Y-91250000D03*
X63000000Y-91250000D03*
%TD*%
D25*
%TO.C,L2*%
X107000000Y-106200000D03*
X107000000Y-108500000D03*
%TD*%
D26*
%TO.C,DD1*%
X76325000Y-79250000D03*
X76325000Y-79750000D03*
X76325000Y-80250000D03*
X76325000Y-80750000D03*
X76325000Y-81250000D03*
X76325000Y-81750000D03*
X76325000Y-82250000D03*
X76325000Y-82750000D03*
X76325000Y-83250000D03*
X76325000Y-83750000D03*
X76325000Y-84250000D03*
X76325000Y-84750000D03*
X76325000Y-85250000D03*
X76325000Y-85750000D03*
X76325000Y-86250000D03*
X76325000Y-86750000D03*
D27*
X78250000Y-88675000D03*
X78750000Y-88675000D03*
X79250000Y-88675000D03*
X79750000Y-88675000D03*
X80250000Y-88675000D03*
X80750000Y-88675000D03*
X81250000Y-88675000D03*
X81750000Y-88675000D03*
X82250000Y-88675000D03*
X82750000Y-88675000D03*
X83250000Y-88675000D03*
X83750000Y-88675000D03*
X84250000Y-88675000D03*
X84750000Y-88675000D03*
X85250000Y-88675000D03*
X85750000Y-88675000D03*
D26*
X87675000Y-86750000D03*
X87675000Y-86250000D03*
X87675000Y-85750000D03*
X87675000Y-85250000D03*
X87675000Y-84750000D03*
X87675000Y-84250000D03*
X87675000Y-83750000D03*
X87675000Y-83250000D03*
X87675000Y-82750000D03*
X87675000Y-82250000D03*
X87675000Y-81750000D03*
X87675000Y-81250000D03*
X87675000Y-80750000D03*
X87675000Y-80250000D03*
X87675000Y-79750000D03*
X87675000Y-79250000D03*
D27*
X85750000Y-77325000D03*
X85250000Y-77325000D03*
X84750000Y-77325000D03*
X84250000Y-77325000D03*
X83750000Y-77325000D03*
X83250000Y-77325000D03*
X82750000Y-77325000D03*
X82250000Y-77325000D03*
X81750000Y-77325000D03*
X81250000Y-77325000D03*
X80750000Y-77325000D03*
X80250000Y-77325000D03*
X79750000Y-77325000D03*
X79250000Y-77325000D03*
X78750000Y-77325000D03*
X78250000Y-77325000D03*
%TD*%
D16*
%TO.C,C21*%
X66975000Y-50162500D03*
X66975000Y-52237500D03*
%TD*%
D28*
%TO.C,U3*%
X101000000Y-118500000D03*
X101000000Y-116500000D03*
X101000000Y-114500000D03*
X101000000Y-112500000D03*
X101000000Y-110500000D03*
X101000000Y-108500000D03*
X101000000Y-106500000D03*
X101000000Y-104500000D03*
X85000000Y-104500000D03*
X85000000Y-106500000D03*
X85000000Y-108500000D03*
X85000000Y-110500000D03*
X85000000Y-112500000D03*
X85000000Y-114500000D03*
X85000000Y-116500000D03*
X85000000Y-118500000D03*
%TD*%
D24*
%TO.C,R9*%
X41500000Y-67500000D03*
X41500000Y-65500000D03*
%TD*%
D14*
%TO.C,C26*%
X89962500Y-78750000D03*
X92037500Y-78750000D03*
%TD*%
D13*
%TO.C,C13*%
X62037500Y-85750000D03*
X59962500Y-85750000D03*
%TD*%
D10*
%TO.C,C1*%
X87750000Y-35997500D03*
X87750000Y-33922500D03*
%TD*%
D29*
%TO.C,D7*%
X54030000Y-106615000D03*
X59430000Y-106615000D03*
%TD*%
D15*
%TO.C,VD8*%
X105550000Y-85460000D03*
X107450000Y-85460000D03*
X106500000Y-82460000D03*
%TD*%
D12*
%TO.C,R1*%
X82500000Y-96000000D03*
X82500000Y-98000000D03*
%TD*%
D13*
%TO.C,C17*%
X87787500Y-91000000D03*
X85712500Y-91000000D03*
%TD*%
D16*
%TO.C,C29*%
X52500000Y-63462500D03*
X52500000Y-65537500D03*
%TD*%
D15*
%TO.C,VD7*%
X105550000Y-72960000D03*
X107450000Y-72960000D03*
X106500000Y-69960000D03*
%TD*%
D24*
%TO.C,R10*%
X41500000Y-63000000D03*
X41500000Y-61000000D03*
%TD*%
D20*
%TO.C,D4*%
X35500000Y-65550000D03*
X35500000Y-67450000D03*
X38500000Y-66500000D03*
%TD*%
D17*
%TO.C,D6*%
X93750000Y-32260000D03*
X93750000Y-37660000D03*
%TD*%
D30*
%TO.C,D9*%
X96950000Y-86790000D03*
X95050000Y-86790000D03*
X96000000Y-89790000D03*
%TD*%
D14*
%TO.C,C20*%
X62712500Y-47500000D03*
X64787500Y-47500000D03*
%TD*%
D20*
%TO.C,D5*%
X37500000Y-81690000D03*
X37500000Y-83590000D03*
X40500000Y-82640000D03*
%TD*%
D24*
%TO.C,R2*%
X80250000Y-69250000D03*
X80250000Y-67250000D03*
%TD*%
D31*
%TO.C,U1*%
X75425000Y-35610000D03*
X75425000Y-34960000D03*
X75425000Y-34310000D03*
X73750000Y-34310000D03*
X73750000Y-34960000D03*
X73750000Y-35610000D03*
%TD*%
D16*
%TO.C,C8*%
X56500000Y-32542500D03*
X56500000Y-34617500D03*
%TD*%
D14*
%TO.C,C31*%
X107462500Y-103250000D03*
X109537500Y-103250000D03*
%TD*%
%TO.C,C16*%
X76462500Y-75000000D03*
X78537500Y-75000000D03*
%TD*%
D10*
%TO.C,C18*%
X65500000Y-91000000D03*
X65500000Y-88925000D03*
%TD*%
D32*
%TO.C,Y1*%
X62000000Y-81000000D03*
X59900000Y-81000000D03*
X59900000Y-82650000D03*
X62000000Y-82650000D03*
%TD*%
D16*
%TO.C,C6*%
X46250000Y-52450000D03*
X46250000Y-54525000D03*
%TD*%
D25*
%TO.C,L1*%
X75712500Y-68100000D03*
X75712500Y-70400000D03*
%TD*%
D16*
%TO.C,C5*%
X37250000Y-52412500D03*
X37250000Y-54487500D03*
%TD*%
D33*
%TO.C,U4*%
X59350000Y-65450000D03*
X59350000Y-64500000D03*
X59350000Y-63550000D03*
X56650000Y-63550000D03*
X56650000Y-65450000D03*
%TD*%
D13*
%TO.C,C30*%
X57287500Y-69000000D03*
X55212500Y-69000000D03*
%TD*%
D14*
%TO.C,C15*%
X75675000Y-72250000D03*
X77750000Y-72250000D03*
%TD*%
D34*
%TO.C,DD3*%
X63950000Y-52000000D03*
X63300000Y-52000000D03*
X62650000Y-52000000D03*
X62000000Y-52000000D03*
X62000000Y-50400000D03*
X62650000Y-50400000D03*
X63300000Y-50400000D03*
X63950000Y-50400000D03*
%TD*%
D13*
%TO.C,C22*%
X86837500Y-55750000D03*
X84762500Y-55750000D03*
%TD*%
D15*
%TO.C,VD5*%
X105550000Y-48500000D03*
X107450000Y-48500000D03*
X106500000Y-45500000D03*
%TD*%
D30*
%TO.C,VD4*%
X49950000Y-63500000D03*
X48050000Y-63500000D03*
X49000000Y-66500000D03*
%TD*%
M02*
