%TF.GenerationSoftware,KiCad,Pcbnew,10.0.1*%
%TF.CreationDate,2026-06-07T19:57:12+03:00*%
%TF.ProjectId,Magister_work_v1,4d616769-7374-4657-925f-776f726b5f76,rev?*%
%TF.SameCoordinates,Original*%
%TF.FileFunction,Copper,L1,Top*%
%TF.FilePolarity,Positive*%
%FSLAX46Y46*%
G04 Gerber Fmt 4.6, Leading zero omitted, Abs format (unit mm)*
G04 Created by KiCad (PCBNEW 10.0.1) date 2026-06-07 19:57:12*
%MOMM*%
%LPD*%
G01*
G04 APERTURE LIST*
G04 Aperture macros list*
%AMRoundRect*
0 Rectangle with rounded corners*
0 $1 Rounding radius*
0 $2 $3 $4 $5 $6 $7 $8 $9 X,Y pos of 4 corners*
0 Add a 4 corners polygon primitive as box body*
4,1,4,$2,$3,$4,$5,$6,$7,$8,$9,$2,$3,0*
0 Add four circle primitives for the rounded corners*
1,1,$1+$1,$2,$3*
1,1,$1+$1,$4,$5*
1,1,$1+$1,$6,$7*
1,1,$1+$1,$8,$9*
0 Add four rect primitives between the rounded corners*
20,1,$1+$1,$2,$3,$4,$5,0*
20,1,$1+$1,$4,$5,$6,$7,0*
20,1,$1+$1,$6,$7,$8,$9,0*
20,1,$1+$1,$8,$9,$2,$3,0*%
G04 Aperture macros list end*
%TA.AperFunction,SMDPad,CuDef*%
%ADD10RoundRect,0.250000X0.475000X-0.337500X0.475000X0.337500X-0.475000X0.337500X-0.475000X-0.337500X0*%
%TD*%
%TA.AperFunction,SMDPad,CuDef*%
%ADD11RoundRect,0.200000X0.750000X0.200000X-0.750000X0.200000X-0.750000X-0.200000X0.750000X-0.200000X0*%
%TD*%
%TA.AperFunction,SMDPad,CuDef*%
%ADD12RoundRect,0.250000X-0.450000X0.350000X-0.450000X-0.350000X0.450000X-0.350000X0.450000X0.350000X0*%
%TD*%
%TA.AperFunction,SMDPad,CuDef*%
%ADD13RoundRect,0.250000X0.337500X0.475000X-0.337500X0.475000X-0.337500X-0.475000X0.337500X-0.475000X0*%
%TD*%
%TA.AperFunction,SMDPad,CuDef*%
%ADD14RoundRect,0.250000X-0.337500X-0.475000X0.337500X-0.475000X0.337500X0.475000X-0.337500X0.475000X0*%
%TD*%
%TA.AperFunction,SMDPad,CuDef*%
%ADD15RoundRect,0.200000X0.200000X-0.750000X0.200000X0.750000X-0.200000X0.750000X-0.200000X-0.750000X0*%
%TD*%
%TA.AperFunction,SMDPad,CuDef*%
%ADD16RoundRect,0.250000X-0.475000X0.337500X-0.475000X-0.337500X0.475000X-0.337500X0.475000X0.337500X0*%
%TD*%
%TA.AperFunction,ComponentPad*%
%ADD17R,1.700000X1.700000*%
%TD*%
%TA.AperFunction,ComponentPad*%
%ADD18C,1.700000*%
%TD*%
%TA.AperFunction,SMDPad,CuDef*%
%ADD19RoundRect,0.250000X-0.900000X1.500000X-0.900000X-1.500000X0.900000X-1.500000X0.900000X1.500000X0*%
%TD*%
%TA.AperFunction,SMDPad,CuDef*%
%ADD20RoundRect,0.250000X-0.350000X-0.450000X0.350000X-0.450000X0.350000X0.450000X-0.350000X0.450000X0*%
%TD*%
%TA.AperFunction,ComponentPad*%
%ADD21RoundRect,0.225000X0.475000X-0.225000X0.475000X0.225000X-0.475000X0.225000X-0.475000X-0.225000X0*%
%TD*%
%TA.AperFunction,ComponentPad*%
%ADD22O,1.400000X0.900000*%
%TD*%
%TA.AperFunction,SMDPad,CuDef*%
%ADD23RoundRect,0.250000X0.400000X1.450000X-0.400000X1.450000X-0.400000X-1.450000X0.400000X-1.450000X0*%
%TD*%
%TA.AperFunction,SMDPad,CuDef*%
%ADD24RoundRect,0.200000X-0.750000X-0.200000X0.750000X-0.200000X0.750000X0.200000X-0.750000X0.200000X0*%
%TD*%
%TA.AperFunction,SMDPad,CuDef*%
%ADD25RoundRect,0.075000X0.350000X0.075000X-0.350000X0.075000X-0.350000X-0.075000X0.350000X-0.075000X0*%
%TD*%
%TA.AperFunction,SMDPad,CuDef*%
%ADD26RoundRect,0.075000X-0.075000X0.350000X-0.075000X-0.350000X0.075000X-0.350000X0.075000X0.350000X0*%
%TD*%
%TA.AperFunction,SMDPad,CuDef*%
%ADD27RoundRect,0.250000X0.350000X0.450000X-0.350000X0.450000X-0.350000X-0.450000X0.350000X-0.450000X0*%
%TD*%
%TA.AperFunction,SMDPad,CuDef*%
%ADD28RoundRect,0.250000X0.450000X-0.350000X0.450000X0.350000X-0.450000X0.350000X-0.450000X-0.350000X0*%
%TD*%
%TA.AperFunction,ComponentPad*%
%ADD29R,1.300000X1.300000*%
%TD*%
%TA.AperFunction,ComponentPad*%
%ADD30C,1.300000*%
%TD*%
%TA.AperFunction,SMDPad,CuDef*%
%ADD31RoundRect,0.250000X-0.350000X0.275000X-0.350000X-0.275000X0.350000X-0.275000X0.350000X0.275000X0*%
%TD*%
%TA.AperFunction,SMDPad,CuDef*%
%ADD32RoundRect,0.075000X-0.700000X-0.075000X0.700000X-0.075000X0.700000X0.075000X-0.700000X0.075000X0*%
%TD*%
%TA.AperFunction,SMDPad,CuDef*%
%ADD33RoundRect,0.075000X-0.075000X-0.700000X0.075000X-0.700000X0.075000X0.700000X-0.075000X0.700000X0*%
%TD*%
%TA.AperFunction,SMDPad,CuDef*%
%ADD34R,2.000000X1.500000*%
%TD*%
%TA.AperFunction,SMDPad,CuDef*%
%ADD35RoundRect,0.250000X-1.500000X-0.900000X1.500000X-0.900000X1.500000X0.900000X-1.500000X0.900000X0*%
%TD*%
%TA.AperFunction,SMDPad,CuDef*%
%ADD36RoundRect,0.200000X-0.200000X0.750000X-0.200000X-0.750000X0.200000X-0.750000X0.200000X0.750000X0*%
%TD*%
%TA.AperFunction,SMDPad,CuDef*%
%ADD37RoundRect,0.087500X0.425000X0.087500X-0.425000X0.087500X-0.425000X-0.087500X0.425000X-0.087500X0*%
%TD*%
%TA.AperFunction,SMDPad,CuDef*%
%ADD38RoundRect,0.250000X0.400000X0.300000X-0.400000X0.300000X-0.400000X-0.300000X0.400000X-0.300000X0*%
%TD*%
%TA.AperFunction,SMDPad,CuDef*%
%ADD39RoundRect,0.162500X0.617500X0.162500X-0.617500X0.162500X-0.617500X-0.162500X0.617500X-0.162500X0*%
%TD*%
%TA.AperFunction,SMDPad,CuDef*%
%ADD40R,0.350000X0.500000*%
%TD*%
%TA.AperFunction,ViaPad*%
%ADD41C,0.600000*%
%TD*%
%TA.AperFunction,ViaPad*%
%ADD42C,1.000000*%
%TD*%
%TA.AperFunction,ViaPad*%
%ADD43C,1.200000*%
%TD*%
%TA.AperFunction,ViaPad*%
%ADD44C,0.500000*%
%TD*%
%TA.AperFunction,Conductor*%
%ADD45C,0.500000*%
%TD*%
%TA.AperFunction,Conductor*%
%ADD46C,0.200000*%
%TD*%
%TA.AperFunction,Conductor*%
%ADD47C,0.700000*%
%TD*%
%TA.AperFunction,Conductor*%
%ADD48C,1.200000*%
%TD*%
%TA.AperFunction,Conductor*%
%ADD49C,1.000000*%
%TD*%
G04 APERTURE END LIST*
D10*
%TO.P,C2,1*%
%TO.N,+5V_2*%
X83750000Y-35997500D03*
%TO.P,C2,2*%
%TO.N,GND*%
X83750000Y-33922500D03*
%TD*%
D11*
%TO.P,U2,1,GND_1*%
%TO.N,GND*%
X43250000Y-54400000D03*
%TO.P,U2,2,VO_2*%
%TO.N,+3V3A*%
X43250000Y-52500000D03*
%TO.P,U2,3,VI_3*%
%TO.N,+5V*%
X40250000Y-53450000D03*
%TD*%
D12*
%TO.P,R7,1*%
%TO.N,+3V3D*%
X46000000Y-86750000D03*
%TO.P,R7,2*%
%TO.N,BN_880_SCL*%
X46000000Y-88750000D03*
%TD*%
D13*
%TO.P,C27,1*%
%TO.N,+5V*%
X56730000Y-102115000D03*
%TO.P,C27,2*%
%TO.N,GND*%
X54655000Y-102115000D03*
%TD*%
%TO.P,C33,1*%
%TO.N,+3V3_MCU*%
X80018750Y-92518750D03*
%TO.P,C33,2*%
%TO.N,GND*%
X77943750Y-92518750D03*
%TD*%
D14*
%TO.P,C14,1*%
%TO.N,+3V3D*%
X75675000Y-66250000D03*
%TO.P,C14,2*%
%TO.N,GND*%
X77750000Y-66250000D03*
%TD*%
D15*
%TO.P,VD6,1,K1_1*%
%TO.N,PWM2*%
X105550000Y-60460000D03*
%TO.P,VD6,2,K2_2*%
X107450000Y-60460000D03*
%TO.P,VD6,3,A_3*%
%TO.N,GND*%
X106500000Y-57460000D03*
%TD*%
D16*
%TO.P,C10,1*%
%TO.N,+3V3D*%
X50020000Y-43500000D03*
%TO.P,C10,2*%
%TO.N,GND*%
X50020000Y-45575000D03*
%TD*%
%TO.P,C25,1*%
%TO.N,+3V3A*%
X85300000Y-50712500D03*
%TO.P,C25,2*%
%TO.N,GND*%
X85300000Y-52787500D03*
%TD*%
D17*
%TO.P,J4,1,Pin_1_1*%
%TO.N,GND*%
X111115000Y-68920000D03*
D18*
%TO.P,J4,2,Pin_2_2*%
%TO.N,+5V_1*%
X111115000Y-71460000D03*
%TO.P,J4,3,Pin_3_3*%
%TO.N,PWM3*%
X111115000Y-74000000D03*
%TD*%
D16*
%TO.P,C11,1*%
%TO.N,+3V3D*%
X46500000Y-43500000D03*
%TO.P,C11,2*%
%TO.N,GND*%
X46500000Y-45575000D03*
%TD*%
D17*
%TO.P,J5,1,Pin_1_1*%
%TO.N,GND*%
X111115000Y-81420000D03*
D18*
%TO.P,J5,2,Pin_2_2*%
%TO.N,+5V_1*%
X111115000Y-83960000D03*
%TO.P,J5,3,Pin_3_3*%
%TO.N,PWM4*%
X111115000Y-86500000D03*
%TD*%
D19*
%TO.P,D8,1,A1_1*%
%TO.N,GND*%
X39000000Y-94800000D03*
%TO.P,D8,2,A2_2*%
%TO.N,+5V*%
X39000000Y-100200000D03*
%TD*%
D14*
%TO.P,C23,1*%
%TO.N,Net-(DD2-REGOUT)*%
X92462500Y-46000000D03*
%TO.P,C23,2*%
%TO.N,GND*%
X94537500Y-46000000D03*
%TD*%
D20*
%TO.P,R11,1*%
%TO.N,Net-(R10-Pad1)*%
X44000000Y-63500000D03*
%TO.P,R11,2*%
%TO.N,Net-(U4-+)*%
X46000000Y-63500000D03*
%TD*%
D21*
%TO.P,J9,1,Pin_1_1*%
%TO.N,BN_880_SDA*%
X32000000Y-90625000D03*
D22*
%TO.P,J9,2,Pin_2_2*%
%TO.N,BN_880_SCL*%
X32000000Y-89375000D03*
%TD*%
D16*
%TO.P,C4,1*%
%TO.N,+5V*%
X70000000Y-36462500D03*
%TO.P,C4,2*%
%TO.N,GND*%
X70000000Y-38537500D03*
%TD*%
D23*
%TO.P,F1,1,A1_1*%
%TO.N,+5V_1*%
X104225000Y-38000000D03*
%TO.P,F1,2,A2_2*%
%TO.N,+5V_2*%
X99775000Y-38000000D03*
%TD*%
D10*
%TO.P,C28,1*%
%TO.N,+5V*%
X44000000Y-98000000D03*
%TO.P,C28,2*%
%TO.N,GND*%
X44000000Y-95925000D03*
%TD*%
D24*
%TO.P,VD2,1,K1_1*%
%TO.N,BN_880_RX*%
X38000000Y-103550000D03*
%TO.P,VD2,2,K2_2*%
%TO.N,BN_880_TX*%
X38000000Y-105450000D03*
%TO.P,VD2,3,A_3*%
%TO.N,GND*%
X41000000Y-104500000D03*
%TD*%
D25*
%TO.P,DD2,1,CLKIN_1*%
%TO.N,GND*%
X94250000Y-52250000D03*
%TO.P,DD2,2,NC_2*%
%TO.N,unconnected-(DD2-NC-Pad2)*%
X94250000Y-51750000D03*
%TO.P,DD2,3,NC_3*%
%TO.N,unconnected-(DD2-NC-Pad3)*%
X94250000Y-51250000D03*
%TO.P,DD2,4,NC_4*%
%TO.N,unconnected-(DD2-NC-Pad4)*%
X94250000Y-50750000D03*
%TO.P,DD2,5,NC_5*%
%TO.N,unconnected-(DD2-NC-Pad5)*%
X94250000Y-50250000D03*
%TO.P,DD2,6,AUX_DA_6*%
%TO.N,unconnected-(DD2-AUX_DA-Pad6)*%
X94250000Y-49750000D03*
D26*
%TO.P,DD2,7,AUX_CL_7*%
%TO.N,unconnected-(DD2-AUX_CL-Pad7)*%
X93550000Y-49050000D03*
%TO.P,DD2,8,VLOGIC_8*%
%TO.N,+3V3D*%
X93050000Y-49050000D03*
%TO.P,DD2,9,AD0_9*%
%TO.N,GND*%
X92550000Y-49050000D03*
%TO.P,DD2,10,REGOUT_10*%
%TO.N,Net-(DD2-REGOUT)*%
X92050000Y-49050000D03*
%TO.P,DD2,11,FSYNC_11*%
%TO.N,GND*%
X91550000Y-49050000D03*
%TO.P,DD2,12,INT_12*%
%TO.N,INT_MPU6050*%
X91050000Y-49050000D03*
D25*
%TO.P,DD2,13,VDD_13*%
%TO.N,+3V3A*%
X90350000Y-49750000D03*
%TO.P,DD2,14,NC_14*%
%TO.N,unconnected-(DD2-NC-Pad14)*%
X90350000Y-50250000D03*
%TO.P,DD2,15,NC_15*%
%TO.N,unconnected-(DD2-NC-Pad15)*%
X90350000Y-50750000D03*
%TO.P,DD2,16,NC_16*%
%TO.N,unconnected-(DD2-NC-Pad16)*%
X90350000Y-51250000D03*
%TO.P,DD2,17,NC_17*%
%TO.N,unconnected-(DD2-NC-Pad17)*%
X90350000Y-51750000D03*
%TO.P,DD2,18,GND_18*%
%TO.N,GND*%
X90350000Y-52250000D03*
D26*
%TO.P,DD2,19,RESV_19*%
%TO.N,unconnected-(DD2-RESV-Pad19)*%
X91050000Y-52950000D03*
%TO.P,DD2,20,CPOUT_20*%
%TO.N,Net-(DD2-CPOUT)*%
X91550000Y-52950000D03*
%TO.P,DD2,21,RESV_21*%
%TO.N,unconnected-(DD2-RESV-Pad21)*%
X92050000Y-52950000D03*
%TO.P,DD2,22,RESV_22*%
%TO.N,unconnected-(DD2-RESV-Pad22)*%
X92550000Y-52950000D03*
%TO.P,DD2,23,SCL_23*%
%TO.N,SCL_MPU6050*%
X93050000Y-52950000D03*
%TO.P,DD2,24,SDA_24*%
%TO.N,SDA_MPU6050*%
X93550000Y-52950000D03*
%TD*%
D13*
%TO.P,C24,1*%
%TO.N,+3V3D*%
X87337500Y-46750000D03*
%TO.P,C24,2*%
%TO.N,GND*%
X85262500Y-46750000D03*
%TD*%
D27*
%TO.P,R5,1*%
%TO.N,+3V3D*%
X96750000Y-55750000D03*
%TO.P,R5,2*%
%TO.N,SDA_MPU6050*%
X94750000Y-55750000D03*
%TD*%
D16*
%TO.P,C7,1*%
%TO.N,+5V*%
X60500000Y-32580000D03*
%TO.P,C7,2*%
%TO.N,GND*%
X60500000Y-34655000D03*
%TD*%
D10*
%TO.P,C3,1*%
%TO.N,+5V_2*%
X79750000Y-35997500D03*
%TO.P,C3,2*%
%TO.N,GND*%
X79750000Y-33922500D03*
%TD*%
D14*
%TO.P,C32,1*%
%TO.N,Net-(U3-VDD)*%
X106962500Y-112500000D03*
%TO.P,C32,2*%
%TO.N,GND*%
X109037500Y-112500000D03*
%TD*%
D16*
%TO.P,C9,1*%
%TO.N,+3V3D*%
X54000000Y-43500000D03*
%TO.P,C9,2*%
%TO.N,GND*%
X54000000Y-45575000D03*
%TD*%
D20*
%TO.P,R6,1*%
%TO.N,+3V3D*%
X88750000Y-43500000D03*
%TO.P,R6,2*%
%TO.N,INT_MPU6050*%
X90750000Y-43500000D03*
%TD*%
D24*
%TO.P,VD3,1,K1_1*%
%TO.N,BN_880_SCL*%
X38000000Y-89050000D03*
%TO.P,VD3,2,K2_2*%
%TO.N,BN_880_SDA*%
X38000000Y-90950000D03*
%TO.P,VD3,3,A_3*%
%TO.N,GND*%
X41000000Y-90000000D03*
%TD*%
D28*
%TO.P,R8,1*%
%TO.N,+3V3D*%
X46000000Y-93500000D03*
%TO.P,R8,2*%
%TO.N,BN_880_SDA*%
X46000000Y-91500000D03*
%TD*%
D16*
%TO.P,C19,1*%
%TO.N,Net-(DD1-VCAP1)*%
X86000000Y-95962500D03*
%TO.P,C19,2*%
%TO.N,GND*%
X86000000Y-98037500D03*
%TD*%
D14*
%TO.P,C12,1*%
%TO.N,GND*%
X59962500Y-78500000D03*
%TO.P,C12,2*%
%TO.N,Net-(DD1-PH0)*%
X62037500Y-78500000D03*
%TD*%
D15*
%TO.P,VD1,1,K1_1*%
%TO.N,HC_echo*%
X47730000Y-107615000D03*
%TO.P,VD1,2,K2_2*%
%TO.N,HC_trigger*%
X49630000Y-107615000D03*
%TO.P,VD1,3,A_3*%
%TO.N,GND*%
X48680000Y-104615000D03*
%TD*%
D20*
%TO.P,R4,1*%
%TO.N,+3V3D*%
X90500000Y-55750000D03*
%TO.P,R4,2*%
%TO.N,SCL_MPU6050*%
X92500000Y-55750000D03*
%TD*%
D24*
%TO.P,VD9,1,K1_1*%
%TO.N,RX_debug*%
X37500000Y-75240000D03*
%TO.P,VD9,2,K2_2*%
%TO.N,TX_debug*%
X37500000Y-77140000D03*
%TO.P,VD9,3,A_3*%
%TO.N,GND*%
X40500000Y-76190000D03*
%TD*%
D20*
%TO.P,R3,1*%
%TO.N,+3V3D*%
X61000000Y-91250000D03*
%TO.P,R3,2*%
%TO.N,Net-(DD1-NRST)*%
X63000000Y-91250000D03*
%TD*%
D29*
%TO.P,DA1,1,Vin_1*%
%TO.N,+5V*%
X46500000Y-33500000D03*
D30*
%TO.P,DA1,2,GND_2*%
%TO.N,GND*%
X46500000Y-36040000D03*
%TO.P,DA1,3,Vout_3*%
%TO.N,+3V3D*%
X46500000Y-38580000D03*
%TD*%
D31*
%TO.P,L2,1,1_1*%
%TO.N,+3V3D*%
X107000000Y-106200000D03*
%TO.P,L2,2,2_2*%
%TO.N,Net-(U3-VDD)*%
X107000000Y-108500000D03*
%TD*%
D21*
%TO.P,J10,1,Pin_1_1*%
%TO.N,Net-(J10-Pin_1)*%
X31500000Y-65500000D03*
D22*
%TO.P,J10,2,Pin_2_2*%
%TO.N,GND*%
X31500000Y-64250000D03*
%TD*%
D32*
%TO.P,DD1,1,VBAT_1*%
%TO.N,+3V3_MCU*%
X76325000Y-79250000D03*
%TO.P,DD1,2,PC13_2*%
%TO.N,unconnected-(DD1-PC13-Pad2)*%
X76325000Y-79750000D03*
%TO.P,DD1,3,PC14_3*%
%TO.N,unconnected-(DD1-PC14-Pad3)*%
X76325000Y-80250000D03*
%TO.P,DD1,4,PC15_4*%
%TO.N,unconnected-(DD1-PC15-Pad4)*%
X76325000Y-80750000D03*
%TO.P,DD1,5,PH0_5*%
%TO.N,Net-(DD1-PH0)*%
X76325000Y-81250000D03*
%TO.P,DD1,6,PH1_6*%
%TO.N,Net-(DD1-PH1)*%
X76325000Y-81750000D03*
%TO.P,DD1,7,NRST_7*%
%TO.N,Net-(DD1-NRST)*%
X76325000Y-82250000D03*
%TO.P,DD1,8,PC0_8*%
%TO.N,unconnected-(DD1-PC0-Pad8)*%
X76325000Y-82750000D03*
%TO.P,DD1,9,PC1_9*%
%TO.N,unconnected-(DD1-PC1-Pad9)*%
X76325000Y-83250000D03*
%TO.P,DD1,10,PC2_10*%
%TO.N,unconnected-(DD1-PC2-Pad10)*%
X76325000Y-83750000D03*
%TO.P,DD1,11,PC3_11*%
%TO.N,unconnected-(DD1-PC3-Pad11)*%
X76325000Y-84250000D03*
%TO.P,DD1,12,VSSA_12*%
%TO.N,GND*%
X76325000Y-84750000D03*
%TO.P,DD1,13,VREF+_13*%
%TO.N,+3V3A*%
X76325000Y-85250000D03*
%TO.P,DD1,14,PA0_14*%
%TO.N,PWM1*%
X76325000Y-85750000D03*
%TO.P,DD1,15,PA1_15*%
%TO.N,PWM2*%
X76325000Y-86250000D03*
%TO.P,DD1,16,PA2_16*%
%TO.N,PWM3*%
X76325000Y-86750000D03*
D33*
%TO.P,DD1,17,PA3_17*%
%TO.N,PWM4*%
X78250000Y-88675000D03*
%TO.P,DD1,18,VSS_18*%
%TO.N,GND*%
X78750000Y-88675000D03*
%TO.P,DD1,19,VDD_19*%
%TO.N,+3V3_MCU*%
X79250000Y-88675000D03*
%TO.P,DD1,20,PA4_20*%
%TO.N,unconnected-(DD1-PA4-Pad20)*%
X79750000Y-88675000D03*
%TO.P,DD1,21,PA5_21*%
%TO.N,SCK_BMP280*%
X80250000Y-88675000D03*
%TO.P,DD1,22,PA6_22*%
%TO.N,SDO_BMP280*%
X80750000Y-88675000D03*
%TO.P,DD1,23,PA7_23*%
%TO.N,SDI_BMP280*%
X81250000Y-88675000D03*
%TO.P,DD1,24,PC4_24*%
%TO.N,CSB_BMP280*%
X81750000Y-88675000D03*
%TO.P,DD1,25,PC5_25*%
%TO.N,unconnected-(DD1-PC5-Pad25)*%
X82250000Y-88675000D03*
%TO.P,DD1,26,PB0_26*%
%TO.N,BAT_CTRL*%
X82750000Y-88675000D03*
%TO.P,DD1,27,PB1_27*%
%TO.N,unconnected-(DD1-PB1-Pad27)*%
X83250000Y-88675000D03*
%TO.P,DD1,28,PB2_28*%
%TO.N,Net-(DD1-PB2)*%
X83750000Y-88675000D03*
%TO.P,DD1,29,PB10_29*%
%TO.N,BN_880_SCL*%
X84250000Y-88675000D03*
%TO.P,DD1,30,VCAP1_30*%
%TO.N,Net-(DD1-VCAP1)*%
X84750000Y-88675000D03*
%TO.P,DD1,31,VSS_31*%
%TO.N,GND*%
X85250000Y-88675000D03*
%TO.P,DD1,32,VDD_32*%
%TO.N,+3V3_MCU*%
X85750000Y-88675000D03*
D32*
%TO.P,DD1,33,PB12_33*%
%TO.N,Reset_LoRa*%
X87675000Y-86750000D03*
%TO.P,DD1,34,PB13_34*%
%TO.N,SCK_LoRa*%
X87675000Y-86250000D03*
%TO.P,DD1,35,PB14_35*%
%TO.N,MISO_LoRa*%
X87675000Y-85750000D03*
%TO.P,DD1,36,PB15_36*%
%TO.N,MOSI_LoRa*%
X87675000Y-85250000D03*
%TO.P,DD1,37,PC6_37*%
%TO.N,SS_LoRa*%
X87675000Y-84750000D03*
%TO.P,DD1,38,PC7_38*%
%TO.N,DIO0_LoRa*%
X87675000Y-84250000D03*
%TO.P,DD1,39,PC8_39*%
%TO.N,DIO1_LoRa*%
X87675000Y-83750000D03*
%TO.P,DD1,40,PC9_40*%
%TO.N,DIO2_LoRa*%
X87675000Y-83250000D03*
%TO.P,DD1,41,PA8_41*%
%TO.N,unconnected-(DD1-PA8-Pad41)*%
X87675000Y-82750000D03*
%TO.P,DD1,42,PA9_42*%
%TO.N,BN_880_RX*%
X87675000Y-82250000D03*
%TO.P,DD1,43,PA10_43*%
%TO.N,BN_880_TX*%
X87675000Y-81750000D03*
%TO.P,DD1,44,PA11_44*%
%TO.N,TX_debug*%
X87675000Y-81250000D03*
%TO.P,DD1,45,PA12_45*%
%TO.N,RX_debug*%
X87675000Y-80750000D03*
%TO.P,DD1,46,PA13_46*%
%TO.N,Net-(DD1-PA13)*%
X87675000Y-80250000D03*
%TO.P,DD1,47,VSS_47*%
%TO.N,GND*%
X87675000Y-79750000D03*
%TO.P,DD1,48,VDD_48*%
%TO.N,+3V3_MCU*%
X87675000Y-79250000D03*
D33*
%TO.P,DD1,49,PA14_49*%
%TO.N,Net-(DD1-PA14)*%
X85750000Y-77325000D03*
%TO.P,DD1,50,PA15_50*%
%TO.N,unconnected-(DD1-PA15-Pad50)*%
X85250000Y-77325000D03*
%TO.P,DD1,51,PC10_51*%
%TO.N,unconnected-(DD1-PC10-Pad51)*%
X84750000Y-77325000D03*
%TO.P,DD1,52,PC11_52*%
%TO.N,HC_trigger*%
X84250000Y-77325000D03*
%TO.P,DD1,53,PC12_53*%
%TO.N,HC_echo*%
X83750000Y-77325000D03*
%TO.P,DD1,54,PD2_54*%
%TO.N,unconnected-(DD1-PD2-Pad54)*%
X83250000Y-77325000D03*
%TO.P,DD1,55,PB3_55*%
%TO.N,BN_880_SDA*%
X82750000Y-77325000D03*
%TO.P,DD1,56,PB4_56*%
%TO.N,unconnected-(DD1-PB4-Pad56)*%
X82250000Y-77325000D03*
%TO.P,DD1,57,PB5_57*%
%TO.N,INT_MPU6050*%
X81750000Y-77325000D03*
%TO.P,DD1,58,PB6_58*%
%TO.N,SCL_MPU6050*%
X81250000Y-77325000D03*
%TO.P,DD1,59,PB7_59*%
%TO.N,SDA_MPU6050*%
X80750000Y-77325000D03*
%TO.P,DD1,60,BOOT0_60*%
%TO.N,Net-(DD1-BOOT0)*%
X80250000Y-77325000D03*
%TO.P,DD1,61,PB8_61*%
%TO.N,unconnected-(DD1-PB8-Pad61)*%
X79750000Y-77325000D03*
%TO.P,DD1,62,PB9_62*%
%TO.N,unconnected-(DD1-PB9-Pad62)*%
X79250000Y-77325000D03*
%TO.P,DD1,63,VSS_63*%
%TO.N,GND*%
X78750000Y-77325000D03*
%TO.P,DD1,64,VDD_64*%
%TO.N,+3V3_MCU*%
X78250000Y-77325000D03*
%TD*%
D17*
%TO.P,J3,1,Pin_1_1*%
%TO.N,GND*%
X111115000Y-56420000D03*
D18*
%TO.P,J3,2,Pin_2_2*%
%TO.N,+5V_1*%
X111115000Y-58960000D03*
%TO.P,J3,3,Pin_3_3*%
%TO.N,PWM2*%
X111115000Y-61500000D03*
%TD*%
D16*
%TO.P,C21,1*%
%TO.N,+3V3A*%
X66975000Y-50162500D03*
%TO.P,C21,2*%
%TO.N,GND*%
X66975000Y-52237500D03*
%TD*%
D34*
%TO.P,U3,1,ANT_1*%
%TO.N,unconnected-(U3-ANT-Pad1)*%
X101000000Y-118500000D03*
%TO.P,U3,2,GND_2*%
%TO.N,GND*%
X101000000Y-116500000D03*
%TO.P,U3,3,VDD_3*%
%TO.N,Net-(U3-VDD)*%
X101000000Y-114500000D03*
%TO.P,U3,4,~{RESET}_4*%
%TO.N,Reset_LoRa*%
X101000000Y-112500000D03*
%TO.P,U3,5,DIO0_5*%
%TO.N,DIO0_LoRa*%
X101000000Y-110500000D03*
%TO.P,U3,6,DIO1_6*%
%TO.N,DIO1_LoRa*%
X101000000Y-108500000D03*
%TO.P,U3,7,DIO2_7*%
%TO.N,DIO2_LoRa*%
X101000000Y-106500000D03*
%TO.P,U3,8,DIO3_8*%
%TO.N,unconnected-(U3-DIO3-Pad8)*%
X101000000Y-104500000D03*
%TO.P,U3,9,GND_9*%
%TO.N,GND*%
X85000000Y-104500000D03*
%TO.P,U3,10,DIO4_10*%
%TO.N,unconnected-(U3-DIO4-Pad10)*%
X85000000Y-106500000D03*
%TO.P,U3,11,DIO5_11*%
%TO.N,unconnected-(U3-DIO5-Pad11)*%
X85000000Y-108500000D03*
%TO.P,U3,12,SCK_12*%
%TO.N,SCK_LoRa*%
X85000000Y-110500000D03*
%TO.P,U3,13,MISO_13*%
%TO.N,MISO_LoRa*%
X85000000Y-112500000D03*
%TO.P,U3,14,MOSI_14*%
%TO.N,MOSI_LoRa*%
X85000000Y-114500000D03*
%TO.P,U3,15,~{NSS}_15*%
%TO.N,SS_LoRa*%
X85000000Y-116500000D03*
%TO.P,U3,16,GND_16*%
%TO.N,GND*%
X85000000Y-118500000D03*
%TD*%
D28*
%TO.P,R9,1*%
%TO.N,Net-(D4-Pad3)*%
X41500000Y-67500000D03*
%TO.P,R9,2*%
%TO.N,Net-(R10-Pad1)*%
X41500000Y-65500000D03*
%TD*%
D14*
%TO.P,C26,1*%
%TO.N,+3V3_MCU*%
X89962500Y-78750000D03*
%TO.P,C26,2*%
%TO.N,GND*%
X92037500Y-78750000D03*
%TD*%
D13*
%TO.P,C13,1*%
%TO.N,Net-(DD1-PH1)*%
X62037500Y-85750000D03*
%TO.P,C13,2*%
%TO.N,GND*%
X59962500Y-85750000D03*
%TD*%
D17*
%TO.P,J7,1,Pin_1_1*%
%TO.N,+5V*%
X57810000Y-113115000D03*
D18*
%TO.P,J7,2,Pin_2_2*%
%TO.N,GND*%
X55270000Y-113115000D03*
%TO.P,J7,3,Pin_3_3*%
%TO.N,HC_trigger*%
X52730000Y-113115000D03*
%TO.P,J7,4,Pin_4_4*%
%TO.N,HC_echo*%
X50190000Y-113115000D03*
%TD*%
D10*
%TO.P,C1,1*%
%TO.N,+5V_2*%
X87750000Y-35997500D03*
%TO.P,C1,2*%
%TO.N,GND*%
X87750000Y-33922500D03*
%TD*%
D35*
%TO.P,D7,1,A1_1*%
%TO.N,GND*%
X54030000Y-106615000D03*
%TO.P,D7,2,A2_2*%
%TO.N,+5V*%
X59430000Y-106615000D03*
%TD*%
D15*
%TO.P,VD8,1,K1_1*%
%TO.N,PWM4*%
X105550000Y-85460000D03*
%TO.P,VD8,2,K2_2*%
X107450000Y-85460000D03*
%TO.P,VD8,3,A_3*%
%TO.N,GND*%
X106500000Y-82460000D03*
%TD*%
D12*
%TO.P,R1,1*%
%TO.N,Net-(DD1-PB2)*%
X82500000Y-96000000D03*
%TO.P,R1,2*%
%TO.N,GND*%
X82500000Y-98000000D03*
%TD*%
D13*
%TO.P,C17,1*%
%TO.N,+3V3_MCU*%
X87787500Y-91000000D03*
%TO.P,C17,2*%
%TO.N,GND*%
X85712500Y-91000000D03*
%TD*%
D21*
%TO.P,J8,1,Pin_1_1*%
%TO.N,+5V*%
X32000000Y-104125000D03*
D22*
%TO.P,J8,2,Pin_2_2*%
%TO.N,BN_880_TX*%
X32000000Y-102875000D03*
%TO.P,J8,3,Pin_3_3*%
%TO.N,BN_880_RX*%
X32000000Y-101625000D03*
%TO.P,J8,4,Pin_4_4*%
%TO.N,unconnected-(J8-Pin_4-Pad4)*%
X32000000Y-100375000D03*
%TO.P,J8,5,Pin_5_5*%
%TO.N,unconnected-(J8-Pin_5-Pad5)*%
X32000000Y-99125000D03*
%TO.P,J8,6,Pin_6_6*%
%TO.N,GND*%
X32000000Y-97875000D03*
%TD*%
D16*
%TO.P,C29,1*%
%TO.N,Net-(U4-+)*%
X52500000Y-63462500D03*
%TO.P,C29,2*%
%TO.N,GND*%
X52500000Y-65537500D03*
%TD*%
D15*
%TO.P,VD7,1,K1_1*%
%TO.N,PWM3*%
X105550000Y-72960000D03*
%TO.P,VD7,2,K2_2*%
X107450000Y-72960000D03*
%TO.P,VD7,3,A_3*%
%TO.N,GND*%
X106500000Y-69960000D03*
%TD*%
D28*
%TO.P,R10,1*%
%TO.N,Net-(R10-Pad1)*%
X41500000Y-63000000D03*
%TO.P,R10,2*%
%TO.N,GND*%
X41500000Y-61000000D03*
%TD*%
D24*
%TO.P,D4,1*%
%TO.N,Net-(J10-Pin_1)*%
X35500000Y-65550000D03*
%TO.P,D4,2*%
%TO.N,unconnected-(D4-Pad2)*%
X35500000Y-67450000D03*
%TO.P,D4,3*%
%TO.N,Net-(D4-Pad3)*%
X38500000Y-66500000D03*
%TD*%
D19*
%TO.P,D6,1,A1_1*%
%TO.N,GND*%
X93750000Y-32260000D03*
%TO.P,D6,2,A2_2*%
%TO.N,+5V_2*%
X93750000Y-37660000D03*
%TD*%
D36*
%TO.P,D9,1*%
%TO.N,Net-(J6-Pin_1)*%
X96950000Y-86790000D03*
%TO.P,D9,2*%
X95050000Y-86790000D03*
%TO.P,D9,3*%
%TO.N,+3V3D*%
X96000000Y-89790000D03*
%TD*%
D14*
%TO.P,C20,1*%
%TO.N,+3V3D*%
X62712500Y-47500000D03*
%TO.P,C20,2*%
%TO.N,GND*%
X64787500Y-47500000D03*
%TD*%
D24*
%TO.P,D5,1*%
%TO.N,Net-(J1-Pin_1)*%
X37500000Y-81690000D03*
%TO.P,D5,2*%
X37500000Y-83590000D03*
%TO.P,D5,3*%
%TO.N,+5V*%
X40500000Y-82640000D03*
%TD*%
D28*
%TO.P,R2,1*%
%TO.N,Net-(DD1-BOOT0)*%
X80250000Y-69250000D03*
%TO.P,R2,2*%
%TO.N,GND*%
X80250000Y-67250000D03*
%TD*%
D37*
%TO.P,U1,1,VIN_1*%
%TO.N,+5V_2*%
X75425000Y-35610000D03*
%TO.P,U1,2,GND_2*%
%TO.N,GND*%
X75425000Y-34960000D03*
%TO.P,U1,3,~{CE}_3*%
X75425000Y-34310000D03*
%TO.P,U1,4,NC_4*%
%TO.N,unconnected-(U1-NC-Pad4)*%
X73750000Y-34310000D03*
%TO.P,U1,5,ST_5*%
%TO.N,GND*%
X73750000Y-34960000D03*
%TO.P,U1,6,VOUT_6*%
%TO.N,+5V*%
X73750000Y-35610000D03*
%TD*%
D16*
%TO.P,C8,1*%
%TO.N,+5V*%
X56500000Y-32542500D03*
%TO.P,C8,2*%
%TO.N,GND*%
X56500000Y-34617500D03*
%TD*%
D14*
%TO.P,C31,1*%
%TO.N,+3V3D*%
X107462500Y-103250000D03*
%TO.P,C31,2*%
%TO.N,GND*%
X109537500Y-103250000D03*
%TD*%
%TO.P,C16,1*%
%TO.N,+3V3_MCU*%
X76462500Y-75000000D03*
%TO.P,C16,2*%
%TO.N,GND*%
X78537500Y-75000000D03*
%TD*%
D10*
%TO.P,C18,1*%
%TO.N,Net-(DD1-NRST)*%
X65500000Y-91000000D03*
%TO.P,C18,2*%
%TO.N,GND*%
X65500000Y-88925000D03*
%TD*%
D38*
%TO.P,Y1,1,OSC_1*%
%TO.N,Net-(DD1-PH0)*%
X62000000Y-81000000D03*
%TO.P,Y1,2,GND_2*%
%TO.N,GND*%
X59900000Y-81000000D03*
%TO.P,Y1,3,OSC_3*%
%TO.N,Net-(DD1-PH1)*%
X59900000Y-82650000D03*
%TO.P,Y1,4,GND_4*%
%TO.N,GND*%
X62000000Y-82650000D03*
%TD*%
D16*
%TO.P,C6,1*%
%TO.N,+3V3A*%
X46250000Y-52450000D03*
%TO.P,C6,2*%
%TO.N,GND*%
X46250000Y-54525000D03*
%TD*%
D31*
%TO.P,L1,1,1_1*%
%TO.N,+3V3D*%
X75712500Y-68100000D03*
%TO.P,L1,2,2_2*%
%TO.N,+3V3_MCU*%
X75712500Y-70400000D03*
%TD*%
D16*
%TO.P,C5,1*%
%TO.N,+5V*%
X37250000Y-52412500D03*
%TO.P,C5,2*%
%TO.N,GND*%
X37250000Y-54487500D03*
%TD*%
D39*
%TO.P,U4,1*%
%TO.N,BAT_CTRL*%
X59350000Y-65450000D03*
%TO.P,U4,2,V-_2*%
%TO.N,GND*%
X59350000Y-64500000D03*
%TO.P,U4,3,+_3*%
%TO.N,Net-(U4-+)*%
X59350000Y-63550000D03*
%TO.P,U4,4,-_4*%
%TO.N,BAT_CTRL*%
X56650000Y-63550000D03*
%TO.P,U4,5,V+_5*%
%TO.N,+3V3A*%
X56650000Y-65450000D03*
%TD*%
D13*
%TO.P,C30,1*%
%TO.N,+3V3A*%
X57287500Y-69000000D03*
%TO.P,C30,2*%
%TO.N,GND*%
X55212500Y-69000000D03*
%TD*%
D14*
%TO.P,C15,1*%
%TO.N,+3V3_MCU*%
X75675000Y-72250000D03*
%TO.P,C15,2*%
%TO.N,GND*%
X77750000Y-72250000D03*
%TD*%
D40*
%TO.P,DD3,1,GND_1*%
%TO.N,GND*%
X63950000Y-52000000D03*
%TO.P,DD3,2,CSB_2*%
%TO.N,CSB_BMP280*%
X63300000Y-52000000D03*
%TO.P,DD3,3,SDI_3*%
%TO.N,SDI_BMP280*%
X62650000Y-52000000D03*
%TO.P,DD3,4,SCK_4*%
%TO.N,SCK_BMP280*%
X62000000Y-52000000D03*
%TO.P,DD3,5,SDO_5*%
%TO.N,SDO_BMP280*%
X62000000Y-50400000D03*
%TO.P,DD3,6,VDDIO_6*%
%TO.N,+3V3D*%
X62650000Y-50400000D03*
%TO.P,DD3,7,GND_7*%
%TO.N,GND*%
X63300000Y-50400000D03*
%TO.P,DD3,8,VDD_8*%
%TO.N,+3V3A*%
X63950000Y-50400000D03*
%TD*%
D17*
%TO.P,J6,1,Pin_1_1*%
%TO.N,Net-(J6-Pin_1)*%
X95500000Y-83290000D03*
D18*
%TO.P,J6,2,Pin_2_2*%
%TO.N,Net-(DD1-PA13)*%
X95500000Y-80750000D03*
%TO.P,J6,3,Pin_3_3*%
%TO.N,Net-(DD1-PA14)*%
X95500000Y-78210000D03*
%TO.P,J6,4,Pin_4_4*%
%TO.N,GND*%
X95500000Y-75670000D03*
%TD*%
D17*
%TO.P,J2,1,Pin_1_1*%
%TO.N,GND*%
X111115000Y-43920000D03*
D18*
%TO.P,J2,2,Pin_2_2*%
%TO.N,+5V_1*%
X111115000Y-46460000D03*
%TO.P,J2,3,Pin_3_3*%
%TO.N,PWM1*%
X111115000Y-49000000D03*
%TD*%
D13*
%TO.P,C22,1*%
%TO.N,Net-(DD2-CPOUT)*%
X86837500Y-55750000D03*
%TO.P,C22,2*%
%TO.N,GND*%
X84762500Y-55750000D03*
%TD*%
D15*
%TO.P,VD5,1,K1_1*%
%TO.N,PWM1*%
X105550000Y-48500000D03*
%TO.P,VD5,2,K2_2*%
X107450000Y-48500000D03*
%TO.P,VD5,3,A_3*%
%TO.N,GND*%
X106500000Y-45500000D03*
%TD*%
D36*
%TO.P,VD4,1,K1_1*%
%TO.N,Net-(U4-+)*%
X49950000Y-63500000D03*
%TO.P,VD4,2,K2_2*%
X48050000Y-63500000D03*
%TO.P,VD4,3,A_3*%
%TO.N,GND*%
X49000000Y-66500000D03*
%TD*%
D17*
%TO.P,J1,1,Pin_1_1*%
%TO.N,Net-(J1-Pin_1)*%
X31500000Y-83000000D03*
D18*
%TO.P,J1,2,Pin_2_2*%
%TO.N,GND*%
X31500000Y-80460000D03*
%TO.P,J1,3,Pin_3_3*%
%TO.N,TX_debug*%
X31500000Y-77920000D03*
%TO.P,J1,4,Pin_4_4*%
%TO.N,RX_debug*%
X31500000Y-75380000D03*
%TD*%
D41*
%TO.N,GND*%
X43000000Y-42000000D03*
X43000000Y-44000000D03*
X44500000Y-45500000D03*
X96000000Y-46000000D03*
D42*
X56500000Y-37500000D03*
X73500000Y-32500000D03*
X71500000Y-38500000D03*
X110000000Y-35000000D03*
X108500000Y-33500000D03*
X59500000Y-56500000D03*
X59000000Y-58000000D03*
D41*
X93250000Y-78750000D03*
X84000000Y-46750000D03*
X84250000Y-98000000D03*
D42*
X46750000Y-95750000D03*
X58250000Y-45500000D03*
X56500000Y-39000000D03*
D41*
X68500000Y-52250000D03*
X69000000Y-58500000D03*
X47750000Y-54500000D03*
X49000000Y-102750000D03*
X49000000Y-68250000D03*
D42*
X79250000Y-64750000D03*
D41*
X58500000Y-85750000D03*
D42*
X79250000Y-73250000D03*
D41*
X65500000Y-87750000D03*
D42*
X72750000Y-38500000D03*
D41*
X65000000Y-46000000D03*
D43*
X34250000Y-54750000D03*
D41*
X42500000Y-76250000D03*
D42*
X54500000Y-100000000D03*
X43500000Y-90000000D03*
D41*
X85250000Y-54000000D03*
D42*
X72000000Y-32500000D03*
D41*
X74250000Y-84250000D03*
X60750000Y-64500000D03*
X43000000Y-104500000D03*
D42*
X110250000Y-100000000D03*
X57500000Y-56500000D03*
D41*
X77481250Y-94018750D03*
X85500000Y-92250000D03*
D42*
X107260000Y-32260000D03*
D44*
X91250000Y-47500000D03*
D41*
%TO.N,+3V3A*%
X68750000Y-50000000D03*
X47750000Y-52500000D03*
X74250000Y-85250000D03*
X85250000Y-49500000D03*
X55250000Y-65500000D03*
D42*
%TO.N,+5V*%
X46750000Y-98250000D03*
X57000000Y-100000000D03*
D41*
X36250000Y-101000000D03*
D42*
X42500000Y-82750000D03*
%TO.N,+3V3D*%
X75750000Y-64250000D03*
D41*
X59500000Y-91250000D03*
X43750000Y-93500000D03*
D42*
X106750000Y-100000000D03*
D44*
X90500000Y-57250000D03*
D42*
X97750000Y-90250000D03*
D41*
X44500000Y-86750000D03*
D44*
X87250000Y-48500000D03*
X94000000Y-47750000D03*
X97000000Y-57500000D03*
D42*
X69750000Y-43500000D03*
X65000000Y-43500000D03*
X74500000Y-43500000D03*
%TO.N,+3V3_MCU*%
X76500000Y-76750000D03*
D41*
X80481250Y-94018750D03*
X88250000Y-92500000D03*
X74750000Y-79250000D03*
X88750000Y-78250000D03*
%TO.N,PWM2*%
X78750000Y-86250000D03*
X90500000Y-73250000D03*
D42*
%TO.N,+5V_1*%
X108250000Y-38000000D03*
X111375000Y-39375000D03*
X110000000Y-38000000D03*
D41*
%TO.N,PWM3*%
X79315687Y-86815687D03*
X91500000Y-74000000D03*
%TO.N,PWM4*%
X77750000Y-90250000D03*
X92750000Y-74750000D03*
%TO.N,BN_880_RX*%
X90750000Y-82250000D03*
X43000000Y-102750000D03*
%TO.N,BN_880_TX*%
X43000000Y-106000000D03*
X91500000Y-81500000D03*
D44*
%TO.N,INT_MPU6050*%
X89250000Y-48000000D03*
X89250000Y-68500000D03*
%TO.N,SDA_MPU6050*%
X81000000Y-73500000D03*
X83250000Y-73250000D03*
D41*
%TO.N,HC_echo*%
X83799265Y-83450735D03*
X49500000Y-99750000D03*
%TO.N,HC_trigger*%
X85500000Y-79850000D03*
X50500000Y-100500000D03*
%TO.N,RX_debug*%
X73000000Y-76750000D03*
X85000000Y-80750000D03*
%TO.N,TX_debug*%
X85000000Y-81550003D03*
X73100000Y-78000000D03*
%TO.N,PWM1*%
X78000000Y-85750000D03*
X89750000Y-72500000D03*
%TO.N,SCK_BMP280*%
X80000000Y-90500000D03*
X67250000Y-66250000D03*
%TO.N,SDO_BMP280*%
X81500000Y-92250000D03*
X73750000Y-92250000D03*
X66250000Y-66000000D03*
%TO.N,SDI_BMP280*%
X68250000Y-66500000D03*
X82250000Y-91500000D03*
%TO.N,CSB_BMP280*%
X83000000Y-91000000D03*
X70250000Y-66750000D03*
%TO.N,Reset_LoRa*%
X89250000Y-88250000D03*
X98000000Y-112500000D03*
%TD*%
%TO.N,GND*%
D45*
X43000000Y-42000000D02*
X43000000Y-39540000D01*
%TO.N,+3V3D*%
X63250000Y-43500000D02*
X65000000Y-43500000D01*
%TO.N,GND*%
D46*
X94537500Y-46000000D02*
X94537500Y-46712500D01*
X94537500Y-46712500D02*
X94250000Y-47000000D01*
X94250000Y-47000000D02*
X93500000Y-47000000D01*
X93500000Y-47000000D02*
X93250000Y-47250000D01*
X92550000Y-47450000D02*
X92550000Y-49050000D01*
X93250000Y-47250000D02*
X92750000Y-47250000D01*
X92750000Y-47250000D02*
X92550000Y-47450000D01*
%TO.N,Net-(DD2-CPOUT)*%
X86837500Y-55750000D02*
X87750000Y-55750000D01*
X91550000Y-54000000D02*
X91550000Y-52950000D01*
X87750000Y-55750000D02*
X89250000Y-54250000D01*
X89250000Y-54250000D02*
X90707410Y-54250000D01*
X90707410Y-54250000D02*
X90957410Y-54000000D01*
X90957410Y-54000000D02*
X91550000Y-54000000D01*
%TO.N,GND*%
D45*
X47750000Y-54500000D02*
X47750000Y-57250000D01*
X47750000Y-57250000D02*
X44000000Y-61000000D01*
X44000000Y-61000000D02*
X41500000Y-61000000D01*
D46*
X94537500Y-46000000D02*
X96000000Y-46000000D01*
D45*
X43000000Y-44000000D02*
X43000000Y-42000000D01*
X44500000Y-45500000D02*
X43000000Y-44000000D01*
D47*
X46425000Y-45500000D02*
X44500000Y-45500000D01*
D45*
X43000000Y-39540000D02*
X46500000Y-36040000D01*
%TO.N,+5V*%
X37250000Y-52412500D02*
X37250000Y-43250000D01*
X37250000Y-43250000D02*
X37500000Y-43000000D01*
X37500000Y-43000000D02*
X37500000Y-42500000D01*
X37500000Y-42500000D02*
X46500000Y-33500000D01*
%TO.N,GND*%
X46500000Y-45575000D02*
X46425000Y-45500000D01*
D48*
X107260000Y-32260000D02*
X110000000Y-35000000D01*
D45*
X57500000Y-56500000D02*
X59500000Y-56500000D01*
X57500000Y-56500000D02*
X59000000Y-58000000D01*
%TO.N,+5V_2*%
X87750000Y-35997500D02*
X88497500Y-35997500D01*
X99435000Y-37660000D02*
X99775000Y-38000000D01*
X87750000Y-35997500D02*
X83750000Y-35997500D01*
D48*
X93750000Y-37660000D02*
X99435000Y-37660000D01*
D49*
X90160000Y-37660000D02*
X93750000Y-37660000D01*
D45*
X79750000Y-35997500D02*
X75537500Y-35997500D01*
X88497500Y-35997500D02*
X90160000Y-37660000D01*
X83750000Y-35997500D02*
X79750000Y-35997500D01*
X75537500Y-35997500D02*
X75425000Y-35885000D01*
%TO.N,GND*%
X85500000Y-92250000D02*
X85500000Y-91212500D01*
X77750000Y-74212500D02*
X78537500Y-75000000D01*
X66737500Y-52000000D02*
X66975000Y-52237500D01*
X59962500Y-80937500D02*
X59900000Y-81000000D01*
X59900000Y-81000000D02*
X60303122Y-81000000D01*
D46*
X85300000Y-53950000D02*
X85250000Y-54000000D01*
D45*
X87750000Y-33922500D02*
X88577500Y-33922500D01*
D46*
X65000000Y-46000000D02*
X65000000Y-47287500D01*
D47*
X57500000Y-47250000D02*
X55825000Y-45575000D01*
D45*
X77481250Y-92981250D02*
X77943750Y-92518750D01*
X47725000Y-54525000D02*
X47750000Y-54500000D01*
D46*
X77943750Y-92518750D02*
X78700000Y-91762500D01*
D45*
X43250000Y-56000000D02*
X45500000Y-56000000D01*
X107540000Y-81420000D02*
X111115000Y-81420000D01*
X54030000Y-102740000D02*
X54655000Y-102115000D01*
D46*
X83000000Y-49012500D02*
X85262500Y-46750000D01*
D45*
X82250000Y-117250000D02*
X82250000Y-104500000D01*
X108131250Y-114131250D02*
X109037500Y-113225000D01*
D46*
X78537500Y-75000000D02*
X78750000Y-75212500D01*
D45*
X109037500Y-113225000D02*
X109037500Y-112500000D01*
X36200000Y-94800000D02*
X39000000Y-94800000D01*
D46*
X33250000Y-64250000D02*
X36500000Y-61000000D01*
D45*
X109537500Y-103250000D02*
X109537500Y-100712500D01*
D47*
X55825000Y-45575000D02*
X54000000Y-45575000D01*
D45*
X60462500Y-34617500D02*
X60500000Y-34655000D01*
X83750000Y-33922500D02*
X87750000Y-33922500D01*
X41000000Y-90000000D02*
X43500000Y-90000000D01*
D46*
X85250000Y-90537500D02*
X85250000Y-88675000D01*
D45*
X75812500Y-33922500D02*
X75812500Y-32812500D01*
D46*
X74750000Y-84750000D02*
X76325000Y-84750000D01*
X85300000Y-52787500D02*
X89812500Y-52787500D01*
X65000000Y-47287500D02*
X64787500Y-47500000D01*
D45*
X75500000Y-32500000D02*
X72250000Y-32500000D01*
X56500000Y-34617500D02*
X60462500Y-34617500D01*
X85962500Y-98000000D02*
X86000000Y-98037500D01*
X77750000Y-66250000D02*
X79250000Y-64750000D01*
X92750000Y-118500000D02*
X94750000Y-116500000D01*
X106500000Y-57460000D02*
X107540000Y-56420000D01*
D47*
X54000000Y-45575000D02*
X50020000Y-45575000D01*
D45*
X59962500Y-78500000D02*
X59962500Y-80937500D01*
X37250000Y-54750000D02*
X38500000Y-56000000D01*
X85500000Y-91212500D02*
X85712500Y-91000000D01*
X60500000Y-34655000D02*
X62155000Y-34655000D01*
D46*
X60303122Y-81000000D02*
X61953122Y-82650000D01*
D45*
X59962500Y-85750000D02*
X57750000Y-83537500D01*
X106500000Y-45500000D02*
X108080000Y-43920000D01*
D46*
X92037500Y-79712500D02*
X92037500Y-78750000D01*
D45*
X55270000Y-113115000D02*
X55270000Y-110155000D01*
D47*
X58250000Y-45500000D02*
X55900000Y-45500000D01*
D45*
X107540000Y-68920000D02*
X111115000Y-68920000D01*
X88577500Y-33922500D02*
X90240000Y-32260000D01*
X75812500Y-33922500D02*
X75425000Y-34310000D01*
X65500000Y-87750000D02*
X65500000Y-88925000D01*
D46*
X95250000Y-46712500D02*
X94537500Y-46000000D01*
D45*
X79750000Y-33922500D02*
X75812500Y-33922500D01*
D46*
X87700000Y-79775000D02*
X91975000Y-79775000D01*
D45*
X72712500Y-38537500D02*
X72750000Y-38500000D01*
X82250000Y-104500000D02*
X85000000Y-104500000D01*
X57750000Y-81000000D02*
X59900000Y-81000000D01*
X84250000Y-98000000D02*
X85962500Y-98000000D01*
D47*
X50020000Y-45575000D02*
X46500000Y-45575000D01*
D46*
X91975000Y-79775000D02*
X92037500Y-79712500D01*
D45*
X49000000Y-66500000D02*
X49000000Y-68250000D01*
X109537500Y-100712500D02*
X110250000Y-100000000D01*
D46*
X72000000Y-35000000D02*
X73500000Y-35000000D01*
D45*
X46250000Y-54525000D02*
X47725000Y-54525000D01*
D46*
X64750000Y-49000000D02*
X64750000Y-47537500D01*
X92037500Y-78750000D02*
X93250000Y-78750000D01*
D45*
X58500000Y-85750000D02*
X59962500Y-85750000D01*
X75425000Y-34310000D02*
X75425000Y-34685000D01*
X41000000Y-104500000D02*
X43000000Y-104500000D01*
D46*
X36500000Y-61000000D02*
X41500000Y-61000000D01*
X85300000Y-52787500D02*
X85300000Y-53950000D01*
D45*
X80250000Y-65750000D02*
X79250000Y-64750000D01*
D46*
X78700000Y-88725000D02*
X78750000Y-88675000D01*
D45*
X52500000Y-66500000D02*
X52500000Y-65537500D01*
X75812500Y-32812500D02*
X75500000Y-32500000D01*
D46*
X84762500Y-55512500D02*
X83000000Y-53750000D01*
D45*
X44000000Y-95925000D02*
X46575000Y-95925000D01*
X57750000Y-83537500D02*
X57750000Y-81000000D01*
D46*
X69000000Y-58500000D02*
X69000000Y-52750000D01*
X55900000Y-45500000D02*
X55825000Y-45575000D01*
X63300000Y-49650000D02*
X63950000Y-49000000D01*
D45*
X108080000Y-43920000D02*
X111115000Y-43920000D01*
X72000000Y-32500000D02*
X72000000Y-34850000D01*
D46*
X87675000Y-79750000D02*
X87700000Y-79775000D01*
D45*
X54655000Y-100155000D02*
X54500000Y-100000000D01*
D46*
X63300000Y-50400000D02*
X63300000Y-49650000D01*
D45*
X55212500Y-69000000D02*
X55000000Y-69000000D01*
X42875000Y-94800000D02*
X44000000Y-95925000D01*
X38500000Y-56000000D02*
X41500000Y-56000000D01*
X66037500Y-38537500D02*
X70000000Y-38537500D01*
X70000000Y-38537500D02*
X72712500Y-38537500D01*
D46*
X63950000Y-49000000D02*
X64750000Y-49000000D01*
D45*
X49000000Y-66500000D02*
X52500000Y-66500000D01*
X62155000Y-34655000D02*
X66037500Y-38537500D01*
X61953122Y-82650000D02*
X62000000Y-82650000D01*
D46*
X59350000Y-64500000D02*
X60750000Y-64500000D01*
D45*
X83500000Y-118500000D02*
X82250000Y-117250000D01*
D46*
X94250000Y-52250000D02*
X95250000Y-52250000D01*
D45*
X84000000Y-46750000D02*
X85262500Y-46750000D01*
D47*
X57500000Y-56500000D02*
X57500000Y-47250000D01*
D45*
X80250000Y-67250000D02*
X80250000Y-65750000D01*
D46*
X83000000Y-53750000D02*
X83000000Y-49012500D01*
D45*
X101000000Y-116500000D02*
X105762500Y-116500000D01*
X109537500Y-103250000D02*
X109537500Y-112000000D01*
D46*
X74250000Y-84250000D02*
X74750000Y-84750000D01*
D45*
X46250000Y-55250000D02*
X46250000Y-54525000D01*
X45500000Y-56000000D02*
X46250000Y-55250000D01*
D46*
X91550000Y-49050000D02*
X91550000Y-47800000D01*
D45*
X32000000Y-97875000D02*
X33125000Y-97875000D01*
D46*
X95250000Y-52250000D02*
X95250000Y-46712500D01*
D45*
X79250000Y-74287500D02*
X78537500Y-75000000D01*
D46*
X64750000Y-47537500D02*
X64787500Y-47500000D01*
D45*
X55000000Y-69000000D02*
X52500000Y-66500000D01*
D46*
X69000000Y-52750000D02*
X68500000Y-52250000D01*
D45*
X41500000Y-56000000D02*
X43250000Y-56000000D01*
D46*
X85300000Y-55212500D02*
X84762500Y-55750000D01*
D45*
X48680000Y-104615000D02*
X48680000Y-103070000D01*
X48680000Y-103070000D02*
X49000000Y-102750000D01*
X79250000Y-73250000D02*
X79250000Y-74287500D01*
X46575000Y-95925000D02*
X46750000Y-95750000D01*
D49*
X90240000Y-32260000D02*
X93750000Y-32260000D01*
D45*
X107540000Y-56420000D02*
X111115000Y-56420000D01*
X68487500Y-52237500D02*
X68500000Y-52250000D01*
X85000000Y-118500000D02*
X83500000Y-118500000D01*
X56500000Y-34617500D02*
X56500000Y-39000000D01*
D48*
X107260000Y-32260000D02*
X93750000Y-32260000D01*
D45*
X85000000Y-118500000D02*
X92750000Y-118500000D01*
X42440000Y-76190000D02*
X42500000Y-76250000D01*
X106500000Y-82460000D02*
X107540000Y-81420000D01*
X77750000Y-72250000D02*
X77750000Y-74212500D01*
X54030000Y-106615000D02*
X54030000Y-102740000D01*
D46*
X63950000Y-52000000D02*
X66737500Y-52000000D01*
D45*
X105762500Y-116500000D02*
X108131250Y-114131250D01*
X34512500Y-54487500D02*
X34250000Y-54750000D01*
X66975000Y-52237500D02*
X68487500Y-52237500D01*
D46*
X31500000Y-64250000D02*
X33250000Y-64250000D01*
D45*
X106500000Y-69960000D02*
X107540000Y-68920000D01*
X79750000Y-33922500D02*
X83750000Y-33922500D01*
D46*
X89812500Y-52787500D02*
X90350000Y-52250000D01*
X84762500Y-55750000D02*
X84762500Y-55512500D01*
D45*
X33125000Y-97875000D02*
X36200000Y-94800000D01*
D46*
X77943750Y-92518750D02*
X78431250Y-92031250D01*
D45*
X109537500Y-112000000D02*
X109037500Y-112500000D01*
X54655000Y-102115000D02*
X54655000Y-100155000D01*
X39000000Y-94800000D02*
X42875000Y-94800000D01*
X40500000Y-76190000D02*
X42440000Y-76190000D01*
X77481250Y-94018750D02*
X77481250Y-92981250D01*
X77750000Y-66250000D02*
X77750000Y-72250000D01*
X37250000Y-54487500D02*
X34512500Y-54487500D01*
X72250000Y-32500000D02*
X72000000Y-32500000D01*
X94750000Y-116500000D02*
X101000000Y-116500000D01*
X82500000Y-98000000D02*
X84250000Y-98000000D01*
D46*
X78700000Y-91762500D02*
X78700000Y-88725000D01*
D45*
X37250000Y-54487500D02*
X37250000Y-54750000D01*
D46*
X91550000Y-47800000D02*
X91250000Y-47500000D01*
X85712500Y-91000000D02*
X85250000Y-90537500D01*
D45*
X43250000Y-54400000D02*
X43250000Y-56000000D01*
X55270000Y-110155000D02*
X55230000Y-110115000D01*
D46*
X78750000Y-75212500D02*
X78750000Y-77325000D01*
D45*
X55230000Y-107815000D02*
X54030000Y-106615000D01*
X55230000Y-110115000D02*
X55230000Y-107815000D01*
%TO.N,+3V3A*%
D46*
X85300000Y-50712500D02*
X86537500Y-50712500D01*
X86537500Y-50712500D02*
X87500000Y-49750000D01*
X56600000Y-65500000D02*
X56650000Y-65450000D01*
X68587500Y-50162500D02*
X68750000Y-50000000D01*
X85250000Y-50662500D02*
X85300000Y-50712500D01*
X46200000Y-52500000D02*
X46250000Y-52450000D01*
X57212500Y-69000000D02*
X57212500Y-67712500D01*
X63950000Y-50400000D02*
X66737500Y-50400000D01*
X43250000Y-52500000D02*
X46200000Y-52500000D01*
X85250000Y-49500000D02*
X85250000Y-50662500D01*
X57212500Y-67712500D02*
X56650000Y-67150000D01*
X47700000Y-52450000D02*
X47750000Y-52500000D01*
X74250000Y-85250000D02*
X76325000Y-85250000D01*
X66975000Y-50162500D02*
X68587500Y-50162500D01*
X87500000Y-49750000D02*
X90350000Y-49750000D01*
X55250000Y-65500000D02*
X56600000Y-65500000D01*
X56650000Y-67150000D02*
X56650000Y-65450000D01*
X66737500Y-50400000D02*
X66975000Y-50162500D01*
X46250000Y-52450000D02*
X47700000Y-52450000D01*
%TO.N,+5V*%
D45*
X39000000Y-100200000D02*
X41200000Y-98000000D01*
X46500000Y-33500000D02*
X47457500Y-32542500D01*
X37250000Y-52412500D02*
X39212500Y-52412500D01*
X47457500Y-32542500D02*
X50000000Y-32542500D01*
X56730000Y-102115000D02*
X56730000Y-100270000D01*
X70000000Y-36000000D02*
X73635000Y-36000000D01*
X42390000Y-82640000D02*
X42500000Y-82750000D01*
X39212500Y-52412500D02*
X40250000Y-53450000D01*
X56730000Y-100270000D02*
X57000000Y-100000000D01*
X41200000Y-98000000D02*
X44000000Y-98000000D01*
X59430000Y-106615000D02*
X59430000Y-104815000D01*
X39000000Y-100200000D02*
X37050000Y-100200000D01*
X37050000Y-100200000D02*
X36250000Y-101000000D01*
X46500000Y-98000000D02*
X46750000Y-98250000D01*
X57810000Y-111535000D02*
X59430000Y-109915000D01*
X50000000Y-32542500D02*
X56500000Y-32542500D01*
X40500000Y-82640000D02*
X42390000Y-82640000D01*
X63500000Y-32500000D02*
X63420000Y-32580000D01*
X59430000Y-104815000D02*
X56730000Y-102115000D01*
X60462500Y-32542500D02*
X60500000Y-32580000D01*
X70000000Y-36000000D02*
X67000000Y-36000000D01*
X59430000Y-109915000D02*
X59430000Y-106615000D01*
X67000000Y-36000000D02*
X63500000Y-32500000D01*
X56500000Y-32542500D02*
X60462500Y-32542500D01*
X73635000Y-36000000D02*
X73750000Y-35885000D01*
X57810000Y-113115000D02*
X57810000Y-111535000D01*
X44000000Y-98000000D02*
X46500000Y-98000000D01*
X63420000Y-32580000D02*
X60500000Y-32580000D01*
%TO.N,+3V3D*%
X54000000Y-43500000D02*
X50020000Y-43500000D01*
D46*
X93050000Y-48450000D02*
X93050000Y-49050000D01*
D45*
X63250000Y-43500000D02*
X87500000Y-43500000D01*
X107000000Y-106200000D02*
X107000000Y-102750000D01*
X58587500Y-43500000D02*
X62650000Y-47562500D01*
X46500000Y-43500000D02*
X46500000Y-38580000D01*
X50020000Y-43500000D02*
X46500000Y-43500000D01*
D46*
X75712500Y-66287500D02*
X75675000Y-66250000D01*
X93750000Y-47750000D02*
X93050000Y-48450000D01*
X62650000Y-50400000D02*
X62650000Y-47562500D01*
D45*
X75750000Y-64250000D02*
X75750000Y-66175000D01*
X87337500Y-46750000D02*
X87337500Y-43662500D01*
X107462500Y-103250000D02*
X107462500Y-100712500D01*
X87500000Y-43500000D02*
X88750000Y-43500000D01*
X54000000Y-43500000D02*
X58587500Y-43500000D01*
X62650000Y-47562500D02*
X62712500Y-47500000D01*
X87337500Y-43662500D02*
X87500000Y-43500000D01*
D46*
X87250000Y-46837500D02*
X87337500Y-46750000D01*
X94000000Y-47750000D02*
X93750000Y-47750000D01*
D45*
X58587500Y-43500000D02*
X63250000Y-43500000D01*
D46*
X90500000Y-57250000D02*
X90500000Y-55750000D01*
X87250000Y-48500000D02*
X87250000Y-46837500D01*
D45*
X75750000Y-66175000D02*
X75675000Y-66250000D01*
X107462500Y-100712500D02*
X106750000Y-100000000D01*
D46*
X97000000Y-56000000D02*
X96750000Y-55750000D01*
D45*
X46000000Y-93500000D02*
X43750000Y-93500000D01*
X75712500Y-68100000D02*
X75712500Y-66287500D01*
X96000000Y-89790000D02*
X97290000Y-89790000D01*
D46*
X97000000Y-57500000D02*
X97000000Y-56000000D01*
D45*
X44500000Y-86750000D02*
X46000000Y-86750000D01*
X59500000Y-91250000D02*
X61000000Y-91250000D01*
X97290000Y-89790000D02*
X97750000Y-90250000D01*
%TO.N,BN_880_SCL*%
D46*
X38000000Y-89050000D02*
X39700000Y-89050000D01*
X39700000Y-89050000D02*
X40000000Y-88750000D01*
X37675000Y-89375000D02*
X38000000Y-89050000D01*
X84250000Y-95834744D02*
X84250000Y-88675000D01*
X54150000Y-96900000D02*
X83184744Y-96900000D01*
X32000000Y-89375000D02*
X37675000Y-89375000D01*
X40000000Y-88750000D02*
X46000000Y-88750000D01*
X83184744Y-96900000D02*
X84250000Y-95834744D01*
X46000000Y-88750000D02*
X54150000Y-96900000D01*
%TO.N,+3V3_MCU*%
X79250000Y-91212500D02*
X79250000Y-88675000D01*
X88250000Y-91462500D02*
X87787500Y-91000000D01*
X80018750Y-92518750D02*
X79250000Y-91750000D01*
X76500000Y-75037500D02*
X76462500Y-75000000D01*
D45*
X75675000Y-74212500D02*
X76462500Y-75000000D01*
D46*
X78250000Y-77325000D02*
X76462500Y-75537500D01*
X75712500Y-72212500D02*
X75675000Y-72250000D01*
X80481250Y-92981250D02*
X80018750Y-92518750D01*
D45*
X76500000Y-76750000D02*
X76500000Y-75037500D01*
D46*
X87675000Y-79250000D02*
X88175000Y-78750000D01*
X88250000Y-92500000D02*
X88250000Y-91462500D01*
X89462500Y-78250000D02*
X89962500Y-78750000D01*
X87787500Y-91000000D02*
X87787500Y-90712500D01*
X88750000Y-78250000D02*
X89462500Y-78250000D01*
D45*
X75712500Y-70400000D02*
X75712500Y-72212500D01*
D46*
X76462500Y-75537500D02*
X76462500Y-75000000D01*
X88175000Y-78750000D02*
X89962500Y-78750000D01*
X79250000Y-91750000D02*
X79250000Y-91212500D01*
D45*
X75675000Y-72250000D02*
X75675000Y-74212500D01*
D46*
X80481250Y-94018750D02*
X80481250Y-92981250D01*
X74750000Y-79250000D02*
X76325000Y-79250000D01*
X87787500Y-90712500D02*
X85750000Y-88675000D01*
%TO.N,PWM2*%
X107460000Y-60460000D02*
X108500000Y-61500000D01*
X78650000Y-86350000D02*
X78750000Y-86250000D01*
X105550000Y-60460000D02*
X103290000Y-60460000D01*
X77651471Y-86250000D02*
X77751471Y-86350000D01*
X76325000Y-86250000D02*
X77651471Y-86250000D01*
X107450000Y-60460000D02*
X107460000Y-60460000D01*
X103290000Y-60460000D02*
X90500000Y-73250000D01*
X77751471Y-86350000D02*
X78650000Y-86350000D01*
X105550000Y-60460000D02*
X107450000Y-60460000D01*
X108500000Y-61500000D02*
X111115000Y-61500000D01*
%TO.N,+5V_1*%
D48*
X104225000Y-38000000D02*
X110000000Y-38000000D01*
X110000000Y-38000000D02*
X111375000Y-39375000D01*
%TO.N,PWM3*%
D46*
X107450000Y-72960000D02*
X108490000Y-74000000D01*
X79231375Y-86899999D02*
X79315687Y-86815687D01*
X98000000Y-67500000D02*
X91500000Y-74000000D01*
X105550000Y-72960000D02*
X107450000Y-72960000D01*
X76325000Y-86750000D02*
X76474999Y-86899999D01*
X100090000Y-67500000D02*
X98000000Y-67500000D01*
X76474999Y-86899999D02*
X79231375Y-86899999D01*
X108490000Y-74000000D02*
X111115000Y-74000000D01*
X105550000Y-72960000D02*
X100090000Y-67500000D01*
%TO.N,PWM4*%
X78250000Y-88675000D02*
X78250000Y-89750000D01*
X107450000Y-85460000D02*
X108490000Y-86500000D01*
X105550000Y-85460000D02*
X107450000Y-85460000D01*
X102750000Y-72000000D02*
X99750000Y-69000000D01*
X103500000Y-85500000D02*
X102750000Y-84750000D01*
X78250000Y-89750000D02*
X77750000Y-90250000D01*
X102750000Y-84750000D02*
X102750000Y-72000000D01*
X98500000Y-69000000D02*
X92750000Y-74750000D01*
X103540000Y-85460000D02*
X103500000Y-85500000D01*
X108490000Y-86500000D02*
X111115000Y-86500000D01*
X99750000Y-69000000D02*
X98500000Y-69000000D01*
X105550000Y-85460000D02*
X103540000Y-85460000D01*
%TO.N,Net-(DD2-REGOUT)*%
X92462500Y-46000000D02*
X92050000Y-46412500D01*
X92050000Y-46412500D02*
X92050000Y-49050000D01*
%TO.N,Net-(R10-Pad1)*%
X42500000Y-63500000D02*
X44000000Y-63500000D01*
X42000000Y-63000000D02*
X42500000Y-63500000D01*
X41500000Y-63000000D02*
X42000000Y-63000000D01*
X43500000Y-63000000D02*
X44000000Y-63500000D01*
X41500000Y-63000000D02*
X41500000Y-65500000D01*
%TO.N,Net-(U4-+)*%
X52462500Y-63500000D02*
X52500000Y-63462500D01*
X48050000Y-63500000D02*
X49950000Y-63500000D01*
X49950000Y-63500000D02*
X52462500Y-63500000D01*
X53037500Y-63462500D02*
X54500000Y-62000000D01*
X54500000Y-62000000D02*
X57800000Y-62000000D01*
X46000000Y-63500000D02*
X48050000Y-63500000D01*
X52500000Y-63462500D02*
X53037500Y-63462500D01*
X57800000Y-62000000D02*
X59350000Y-63550000D01*
%TO.N,BN_880_SDA*%
X78440685Y-98559315D02*
X78500000Y-98500000D01*
X54809315Y-98559315D02*
X78440685Y-98559315D01*
X89750000Y-97750000D02*
X89750000Y-90250000D01*
X82750000Y-83250000D02*
X82750000Y-77325000D01*
X78500000Y-98500000D02*
X79500000Y-99500000D01*
X40500000Y-91500000D02*
X46000000Y-91500000D01*
X32000000Y-90625000D02*
X37675000Y-90625000D01*
X79500000Y-99500000D02*
X88000000Y-99500000D01*
X89750000Y-90250000D02*
X82750000Y-83250000D01*
X39950000Y-90950000D02*
X40500000Y-91500000D01*
X88000000Y-99500000D02*
X89750000Y-97750000D01*
X47750000Y-91500000D02*
X54809315Y-98559315D01*
X46000000Y-91500000D02*
X47750000Y-91500000D01*
X37675000Y-90625000D02*
X38000000Y-90950000D01*
X38000000Y-90950000D02*
X39950000Y-90950000D01*
%TO.N,BN_880_RX*%
X38000000Y-103550000D02*
X42200000Y-103550000D01*
X33625000Y-101625000D02*
X35550000Y-103550000D01*
X87675000Y-82250000D02*
X90750000Y-82250000D01*
X32000000Y-101625000D02*
X33625000Y-101625000D01*
X42200000Y-103550000D02*
X43000000Y-102750000D01*
X35550000Y-103550000D02*
X38000000Y-103550000D01*
%TO.N,BN_880_TX*%
X32875000Y-102875000D02*
X35500000Y-105500000D01*
X89500000Y-81750000D02*
X87675000Y-81750000D01*
X35500000Y-105500000D02*
X35550000Y-105450000D01*
X91500000Y-81500000D02*
X89750000Y-81500000D01*
X32000000Y-102875000D02*
X32875000Y-102875000D01*
X89750000Y-81500000D02*
X89500000Y-81750000D01*
X35550000Y-105450000D02*
X38000000Y-105450000D01*
X38000000Y-105450000D02*
X42450000Y-105450000D01*
X42450000Y-105450000D02*
X43000000Y-106000000D01*
%TO.N,INT_MPU6050*%
X90000000Y-48000000D02*
X89250000Y-48000000D01*
X90000000Y-44250000D02*
X90750000Y-43500000D01*
X90000000Y-48000000D02*
X90000000Y-44250000D01*
X81750000Y-76000000D02*
X81750000Y-77325000D01*
X91050000Y-49050000D02*
X90000000Y-48000000D01*
X89250000Y-68500000D02*
X81750000Y-76000000D01*
%TO.N,SCL_MPU6050*%
X81250000Y-74250000D02*
X81250000Y-77325000D01*
X92500000Y-63000000D02*
X81250000Y-74250000D01*
X92500000Y-55750000D02*
X92500000Y-63000000D01*
X93050000Y-52950000D02*
X93050000Y-55200000D01*
X93050000Y-55200000D02*
X92500000Y-55750000D01*
%TO.N,SDA_MPU6050*%
X93250000Y-57250000D02*
X93250000Y-63250000D01*
X81000000Y-73500000D02*
X80750000Y-73750000D01*
X93550000Y-52950000D02*
X93550000Y-54550000D01*
X93550000Y-54550000D02*
X94750000Y-55750000D01*
X94750000Y-55750000D02*
X93250000Y-57250000D01*
X80750000Y-73750000D02*
X80750000Y-77325000D01*
X93250000Y-63250000D02*
X83250000Y-73250000D01*
%TO.N,Net-(U3-VDD)*%
D45*
X107000000Y-110650000D02*
X107000000Y-108500000D01*
X101250000Y-114250000D02*
X101000000Y-114500000D01*
X106250000Y-114250000D02*
X106575000Y-113925000D01*
X106575000Y-111075000D02*
X107000000Y-110650000D01*
X106575000Y-113925000D02*
X106575000Y-111075000D01*
X106250000Y-114250000D02*
X101250000Y-114250000D01*
%TO.N,Net-(DD1-VCAP1)*%
D46*
X84750000Y-94712500D02*
X86000000Y-95962500D01*
X84750000Y-88675000D02*
X84750000Y-94712500D01*
%TO.N,Net-(DD1-PH0)*%
X62250000Y-81250000D02*
X64000000Y-81250000D01*
X62037500Y-80962500D02*
X62000000Y-81000000D01*
X62000000Y-81000000D02*
X62250000Y-81250000D01*
X62037500Y-78500000D02*
X62037500Y-80962500D01*
X64000000Y-81250000D02*
X76325000Y-81250000D01*
%TO.N,HC_echo*%
X50190000Y-113115000D02*
X47730000Y-110655000D01*
X83799265Y-83450735D02*
X83799265Y-82549265D01*
X47730000Y-110655000D02*
X47730000Y-107615000D01*
X47730000Y-107615000D02*
X47730000Y-101520000D01*
X47730000Y-101520000D02*
X49500000Y-99750000D01*
X83799265Y-82549265D02*
X83750000Y-82500000D01*
X83750000Y-82500000D02*
X83750000Y-77325000D01*
%TO.N,HC_trigger*%
X51230000Y-109115000D02*
X51130000Y-109115000D01*
X50500000Y-103500000D02*
X50500000Y-100500000D01*
X52730000Y-113115000D02*
X51230000Y-111615000D01*
X51230000Y-111615000D02*
X51230000Y-109115000D01*
X85500000Y-79850000D02*
X84250000Y-78600000D01*
X84250000Y-78600000D02*
X84250000Y-77325000D01*
X49630000Y-107615000D02*
X49630000Y-104370000D01*
X49630000Y-104370000D02*
X50500000Y-103500000D01*
X51130000Y-109115000D02*
X49630000Y-107615000D01*
%TO.N,RX_debug*%
X71490000Y-75240000D02*
X73000000Y-76750000D01*
X37360000Y-75380000D02*
X37500000Y-75240000D01*
X85000000Y-80750000D02*
X87675000Y-80750000D01*
X37500000Y-75240000D02*
X71490000Y-75240000D01*
X31500000Y-75380000D02*
X37360000Y-75380000D01*
%TO.N,TX_debug*%
X36720000Y-77920000D02*
X37500000Y-77140000D01*
X85449997Y-81550003D02*
X85750000Y-81250000D01*
X73000000Y-78000000D02*
X73100000Y-78000000D01*
X71000000Y-76000000D02*
X73000000Y-78000000D01*
X85000000Y-81550003D02*
X85449997Y-81550003D01*
X85750000Y-81250000D02*
X87675000Y-81250000D01*
X31500000Y-77920000D02*
X36720000Y-77920000D01*
X52250000Y-76000000D02*
X71000000Y-76000000D01*
X37500000Y-77140000D02*
X51110000Y-77140000D01*
X51110000Y-77140000D02*
X52250000Y-76000000D01*
%TO.N,Net-(DD1-NRST)*%
X65500000Y-91000000D02*
X74250000Y-82250000D01*
X65250000Y-91250000D02*
X65500000Y-91000000D01*
X63000000Y-91250000D02*
X65250000Y-91250000D01*
X74250000Y-82250000D02*
X76325000Y-82250000D01*
%TO.N,Net-(J10-Pin_1)*%
X35450000Y-65500000D02*
X35500000Y-65550000D01*
X31500000Y-65500000D02*
X35450000Y-65500000D01*
%TO.N,Net-(DD1-PH1)*%
X62037500Y-84037500D02*
X62000000Y-84000000D01*
X72900000Y-81750000D02*
X70650000Y-84000000D01*
X76325000Y-81750000D02*
X72900000Y-81750000D01*
X59900000Y-82900000D02*
X59900000Y-82650000D01*
X61000000Y-84000000D02*
X59900000Y-82900000D01*
X70650000Y-84000000D02*
X62000000Y-84000000D01*
X62037500Y-85750000D02*
X62037500Y-84037500D01*
X62000000Y-84000000D02*
X61000000Y-84000000D01*
%TO.N,PWM1*%
X105550000Y-48500000D02*
X107450000Y-48500000D01*
X89875000Y-72375000D02*
X89750000Y-72500000D01*
X107450000Y-48500000D02*
X107950000Y-49000000D01*
X107950000Y-49000000D02*
X111115000Y-49000000D01*
X105550000Y-48500000D02*
X102500000Y-48500000D01*
X100250000Y-50750000D02*
X100250000Y-62000000D01*
X76325000Y-85750000D02*
X78000000Y-85750000D01*
X102500000Y-48500000D02*
X100250000Y-50750000D01*
X100250000Y-62000000D02*
X89875000Y-72375000D01*
%TO.N,SCK_BMP280*%
X62000000Y-56000000D02*
X67250000Y-61250000D01*
X80250000Y-90250000D02*
X80000000Y-90500000D01*
X62000000Y-52000000D02*
X62000000Y-56000000D01*
X67250000Y-61250000D02*
X67250000Y-66250000D01*
X80250000Y-88675000D02*
X80250000Y-90250000D01*
%TO.N,SDO_BMP280*%
X61000000Y-57000000D02*
X66250000Y-62250000D01*
X81250000Y-92000000D02*
X81500000Y-92250000D01*
X80750000Y-88675000D02*
X80750000Y-91000000D01*
X66250000Y-62250000D02*
X66250000Y-66000000D01*
X62000000Y-50400000D02*
X61600000Y-50400000D01*
X81250000Y-91500000D02*
X81250000Y-92000000D01*
X61000000Y-51000000D02*
X61000000Y-57000000D01*
X80750000Y-91000000D02*
X81250000Y-91500000D01*
X61600000Y-50400000D02*
X61000000Y-51000000D01*
%TO.N,SDI_BMP280*%
X62650000Y-52000000D02*
X62650000Y-55650000D01*
X62650000Y-55650000D02*
X68250000Y-61250000D01*
X81250000Y-90500000D02*
X82250000Y-91500000D01*
X68250000Y-61250000D02*
X68250000Y-66500000D01*
X81250000Y-88675000D02*
X81250000Y-90500000D01*
%TO.N,CSB_BMP280*%
X63300000Y-52000000D02*
X63300000Y-55050000D01*
X63300000Y-55050000D02*
X70250000Y-62000000D01*
X81750000Y-88675000D02*
X81750000Y-89750000D01*
X81750000Y-89750000D02*
X83000000Y-91000000D01*
X70250000Y-62000000D02*
X70250000Y-66750000D01*
%TO.N,BAT_CTRL*%
X82750000Y-84000000D02*
X82750000Y-88675000D01*
X75700000Y-76950000D02*
X75700000Y-77081371D01*
X76168629Y-77550000D02*
X76300000Y-77550000D01*
X64200000Y-65450000D02*
X75700000Y-76950000D01*
X76300000Y-77550000D02*
X82750000Y-84000000D01*
X56650000Y-63550000D02*
X58550000Y-65450000D01*
X75700000Y-77081371D02*
X76168629Y-77550000D01*
X59350000Y-65450000D02*
X64200000Y-65450000D01*
X58550000Y-65450000D02*
X59350000Y-65450000D01*
%TO.N,Net-(DD1-PB2)*%
X82500000Y-96000000D02*
X83750000Y-94750000D01*
X83750000Y-94750000D02*
X83750000Y-88675000D01*
%TO.N,Reset_LoRa*%
X88500000Y-86750000D02*
X87675000Y-86750000D01*
X89250000Y-87500000D02*
X88500000Y-86750000D01*
X101000000Y-112500000D02*
X98000000Y-112500000D01*
X89250000Y-88250000D02*
X89250000Y-87500000D01*
%TO.N,SCK_LoRa*%
X90150000Y-87281372D02*
X89118628Y-86250000D01*
X85250000Y-110500000D02*
X90150000Y-105600000D01*
X85000000Y-110500000D02*
X85250000Y-110500000D01*
X89118628Y-86250000D02*
X87675000Y-86250000D01*
X90150000Y-105600000D02*
X90150000Y-87281372D01*
%TO.N,MISO_LoRa*%
X90550000Y-107300000D02*
X90550000Y-87115686D01*
X85000000Y-112500000D02*
X85350000Y-112500000D01*
X85350000Y-112500000D02*
X90550000Y-107300000D01*
X89184314Y-85750000D02*
X87675000Y-85750000D01*
X90550000Y-87115686D02*
X89184314Y-85750000D01*
%TO.N,MOSI_LoRa*%
X85000000Y-114500000D02*
X85350000Y-114500000D01*
X90950000Y-86950000D02*
X89250000Y-85250000D01*
X85350000Y-114500000D02*
X90950000Y-108900000D01*
X89250000Y-85250000D02*
X87675000Y-85250000D01*
X90950000Y-108900000D02*
X90950000Y-86950000D01*
%TO.N,SS_LoRa*%
X91500000Y-110250000D02*
X91500000Y-86750000D01*
X89500000Y-84750000D02*
X87675000Y-84750000D01*
X85000000Y-116500000D02*
X85250000Y-116500000D01*
X91500000Y-86750000D02*
X89500000Y-84750000D01*
X85250000Y-116500000D02*
X91500000Y-110250000D01*
%TO.N,DIO0_LoRa*%
X92500000Y-86750000D02*
X90000000Y-84250000D01*
X101000000Y-110500000D02*
X98250000Y-110500000D01*
X98250000Y-110500000D02*
X92500000Y-104750000D01*
X90000000Y-84250000D02*
X87675000Y-84250000D01*
X92500000Y-104750000D02*
X92500000Y-86750000D01*
%TO.N,DIO1_LoRa*%
X101000000Y-108500000D02*
X97750000Y-108500000D01*
X97750000Y-108500000D02*
X93000000Y-103750000D01*
X93000000Y-103750000D02*
X93000000Y-86500000D01*
X90250000Y-83750000D02*
X87675000Y-83750000D01*
X93000000Y-86500000D02*
X90250000Y-83750000D01*
%TO.N,DIO2_LoRa*%
X99250000Y-106500000D02*
X93500000Y-100750000D01*
X101000000Y-106500000D02*
X99250000Y-106500000D01*
X90750000Y-83250000D02*
X87675000Y-83250000D01*
X93500000Y-100750000D02*
X93500000Y-86000000D01*
X93500000Y-86000000D02*
X90750000Y-83250000D01*
%TO.N,Net-(DD1-PA13)*%
X87675000Y-80250000D02*
X95000000Y-80250000D01*
X95000000Y-80250000D02*
X95500000Y-80750000D01*
%TO.N,Net-(DD1-PA14)*%
X93710000Y-78210000D02*
X95500000Y-78210000D01*
X85750000Y-77325000D02*
X85925000Y-77500000D01*
X85925000Y-77500000D02*
X93000000Y-77500000D01*
X93000000Y-77500000D02*
X93710000Y-78210000D01*
%TO.N,Net-(DD1-BOOT0)*%
X80250000Y-72250000D02*
X80000000Y-72000000D01*
X80200000Y-76467590D02*
X80250000Y-76417590D01*
X80000000Y-72000000D02*
X80000000Y-69500000D01*
X80250000Y-77325000D02*
X80200000Y-77275000D01*
X80000000Y-69500000D02*
X80250000Y-69250000D01*
X80250000Y-76417590D02*
X80250000Y-72250000D01*
X80200000Y-77275000D02*
X80200000Y-76467590D01*
%TO.N,Net-(D4-Pad3)*%
X40500000Y-67500000D02*
X41500000Y-67500000D01*
X39500000Y-66500000D02*
X40500000Y-67500000D01*
X38500000Y-66500000D02*
X39500000Y-66500000D01*
%TO.N,Net-(J6-Pin_1)*%
X95500000Y-86340000D02*
X95050000Y-86790000D01*
X96950000Y-86790000D02*
X95050000Y-86790000D01*
X95500000Y-83290000D02*
X95500000Y-86340000D01*
%TO.N,Net-(J1-Pin_1)*%
X37500000Y-81690000D02*
X37500000Y-83590000D01*
D45*
X31500000Y-83000000D02*
X36910000Y-83000000D01*
D46*
X36910000Y-83000000D02*
X37500000Y-83590000D01*
%TD*%
%TA.AperFunction,Conductor*%
%TO.N,+5V*%
G36*
X69443039Y-30519685D02*
G01*
X69488794Y-30572489D01*
X69500000Y-30624000D01*
X69500000Y-35260471D01*
X69480315Y-35327510D01*
X69427511Y-35373265D01*
X69388602Y-35383829D01*
X69372302Y-35385494D01*
X69205880Y-35440641D01*
X69205875Y-35440643D01*
X69056654Y-35532684D01*
X68932684Y-35656654D01*
X68840643Y-35805875D01*
X68840641Y-35805880D01*
X68785494Y-35972302D01*
X68785493Y-35972309D01*
X68775000Y-36075013D01*
X68775000Y-36212500D01*
X69500000Y-36212500D01*
X69500000Y-36500000D01*
X66552651Y-36500000D01*
X66485612Y-36480315D01*
X66463433Y-36462117D01*
X66342181Y-36336500D01*
X63418938Y-33308014D01*
X63418937Y-33308013D01*
X61814623Y-33279645D01*
X61747942Y-33258778D01*
X61703128Y-33205173D01*
X61694408Y-33135850D01*
X61699109Y-33116660D01*
X61714505Y-33070197D01*
X61714506Y-33070190D01*
X61724999Y-32967486D01*
X61725000Y-32967473D01*
X61725000Y-32830000D01*
X59275001Y-32830000D01*
X59275001Y-32967486D01*
X59285494Y-33070201D01*
X59286911Y-33076819D01*
X59285619Y-33077095D01*
X59287767Y-33139651D01*
X59252031Y-33199691D01*
X59189508Y-33230879D01*
X59165469Y-33232800D01*
X57825570Y-33209107D01*
X57758889Y-33188240D01*
X57714075Y-33134635D01*
X57705355Y-33065312D01*
X57710057Y-33046118D01*
X57714506Y-33032693D01*
X57714506Y-33032690D01*
X57724999Y-32929986D01*
X57725000Y-32929973D01*
X57725000Y-32792500D01*
X55275001Y-32792500D01*
X55275001Y-32929988D01*
X55284746Y-33025376D01*
X55271976Y-33094068D01*
X55224095Y-33144953D01*
X55159196Y-33161958D01*
X47771808Y-33031329D01*
X47705127Y-33010462D01*
X47660313Y-32956857D01*
X47650000Y-32907348D01*
X47650000Y-32802172D01*
X47649999Y-32802155D01*
X47643598Y-32742627D01*
X47643596Y-32742620D01*
X47593354Y-32607913D01*
X47593350Y-32607906D01*
X47507190Y-32492812D01*
X47507187Y-32492809D01*
X47392093Y-32406649D01*
X47392086Y-32406645D01*
X47257379Y-32356403D01*
X47257372Y-32356401D01*
X47197844Y-32350000D01*
X46750000Y-32350000D01*
X46750000Y-33013262D01*
X46250000Y-33004420D01*
X46250000Y-32350000D01*
X46124000Y-32350000D01*
X46115314Y-32347449D01*
X46106353Y-32348738D01*
X46082312Y-32337759D01*
X46056961Y-32330315D01*
X46051033Y-32323474D01*
X46042797Y-32319713D01*
X46028507Y-32297478D01*
X46011206Y-32277511D01*
X46008918Y-32266996D01*
X46005023Y-32260935D01*
X46000000Y-32226000D01*
X46000000Y-32155013D01*
X55275000Y-32155013D01*
X55275000Y-32292500D01*
X56250000Y-32292500D01*
X56750000Y-32292500D01*
X57724999Y-32292500D01*
X57724999Y-32192513D01*
X59275000Y-32192513D01*
X59275000Y-32330000D01*
X60250000Y-32330000D01*
X60750000Y-32330000D01*
X61724999Y-32330000D01*
X61724999Y-32192528D01*
X61724998Y-32192513D01*
X61714505Y-32089802D01*
X61659358Y-31923380D01*
X61659356Y-31923375D01*
X61567315Y-31774154D01*
X61443345Y-31650184D01*
X61294124Y-31558143D01*
X61294119Y-31558141D01*
X61127697Y-31502994D01*
X61127690Y-31502993D01*
X61024986Y-31492500D01*
X60750000Y-31492500D01*
X60750000Y-32330000D01*
X60250000Y-32330000D01*
X60250000Y-31492500D01*
X59975029Y-31492500D01*
X59975012Y-31492501D01*
X59872302Y-31502994D01*
X59705880Y-31558141D01*
X59705875Y-31558143D01*
X59556654Y-31650184D01*
X59432684Y-31774154D01*
X59340643Y-31923375D01*
X59340641Y-31923380D01*
X59285494Y-32089802D01*
X59285493Y-32089809D01*
X59275000Y-32192513D01*
X57724999Y-32192513D01*
X57724999Y-32155028D01*
X57724998Y-32155013D01*
X57714505Y-32052302D01*
X57659358Y-31885880D01*
X57659356Y-31885875D01*
X57567315Y-31736654D01*
X57443345Y-31612684D01*
X57294124Y-31520643D01*
X57294119Y-31520641D01*
X57127697Y-31465494D01*
X57127690Y-31465493D01*
X57024986Y-31455000D01*
X56750000Y-31455000D01*
X56750000Y-32292500D01*
X56250000Y-32292500D01*
X56250000Y-31455000D01*
X55975029Y-31455000D01*
X55975012Y-31455001D01*
X55872302Y-31465494D01*
X55705880Y-31520641D01*
X55705875Y-31520643D01*
X55556654Y-31612684D01*
X55432684Y-31736654D01*
X55340643Y-31885875D01*
X55340641Y-31885880D01*
X55285494Y-32052302D01*
X55285493Y-32052309D01*
X55275000Y-32155013D01*
X46000000Y-32155013D01*
X46000000Y-30624000D01*
X46019685Y-30556961D01*
X46072489Y-30511206D01*
X46124000Y-30500000D01*
X69376000Y-30500000D01*
X69443039Y-30519685D01*
G37*
%TD.AperFunction*%
%TD*%
%TA.AperFunction,Conductor*%
%TO.N,+5V_2*%
G36*
X75600000Y-35759500D02*
G01*
X75600000Y-36284999D01*
X75888513Y-36284999D01*
X76003359Y-36269881D01*
X76003367Y-36269878D01*
X76115272Y-36223526D01*
X76184741Y-36216057D01*
X76247220Y-36247332D01*
X76249985Y-36250000D01*
X76250000Y-36250000D01*
X78401001Y-36250000D01*
X78468040Y-36269685D01*
X78513795Y-36322489D01*
X78525001Y-36374000D01*
X78525001Y-36384986D01*
X78535494Y-36487697D01*
X78590641Y-36654119D01*
X78590643Y-36654124D01*
X78682684Y-36803345D01*
X78806654Y-36927315D01*
X78955875Y-37019356D01*
X78955880Y-37019358D01*
X79122302Y-37074505D01*
X79122309Y-37074506D01*
X79225019Y-37084999D01*
X79499999Y-37084999D01*
X79500000Y-37084998D01*
X79500000Y-36250000D01*
X80000000Y-36250000D01*
X80000000Y-37084999D01*
X80274972Y-37084999D01*
X80274986Y-37084998D01*
X80377697Y-37074505D01*
X80544119Y-37019358D01*
X80544124Y-37019356D01*
X80693345Y-36927315D01*
X80817315Y-36803345D01*
X80909356Y-36654124D01*
X80909358Y-36654119D01*
X80964505Y-36487697D01*
X80964506Y-36487690D01*
X80974999Y-36384986D01*
X80975000Y-36384973D01*
X80975000Y-36374000D01*
X80994685Y-36306961D01*
X81047489Y-36261206D01*
X81099000Y-36250000D01*
X82401001Y-36250000D01*
X82468040Y-36269685D01*
X82513795Y-36322489D01*
X82525001Y-36374000D01*
X82525001Y-36384986D01*
X82535494Y-36487697D01*
X82590641Y-36654119D01*
X82590643Y-36654124D01*
X82682684Y-36803345D01*
X82806654Y-36927315D01*
X82955875Y-37019356D01*
X82955880Y-37019358D01*
X83122302Y-37074505D01*
X83122309Y-37074506D01*
X83225019Y-37084999D01*
X83499999Y-37084999D01*
X83500000Y-37084998D01*
X83500000Y-36250000D01*
X84000000Y-36250000D01*
X84000000Y-37084999D01*
X84274972Y-37084999D01*
X84274986Y-37084998D01*
X84377697Y-37074505D01*
X84544119Y-37019358D01*
X84544124Y-37019356D01*
X84693345Y-36927315D01*
X84817315Y-36803345D01*
X84909356Y-36654124D01*
X84909358Y-36654119D01*
X84964505Y-36487697D01*
X84964506Y-36487690D01*
X84974999Y-36384986D01*
X84975000Y-36384973D01*
X84975000Y-36374000D01*
X84994685Y-36306961D01*
X85047489Y-36261206D01*
X85099000Y-36250000D01*
X86401001Y-36250000D01*
X86468040Y-36269685D01*
X86513795Y-36322489D01*
X86525001Y-36374000D01*
X86525001Y-36384986D01*
X86535494Y-36487697D01*
X86590641Y-36654119D01*
X86590643Y-36654124D01*
X86682684Y-36803345D01*
X86806654Y-36927315D01*
X86955875Y-37019356D01*
X86955880Y-37019358D01*
X87122302Y-37074505D01*
X87122309Y-37074506D01*
X87225019Y-37084999D01*
X87499999Y-37084999D01*
X87500000Y-37084998D01*
X87500000Y-36250000D01*
X88000000Y-36250000D01*
X88000000Y-37084999D01*
X88274972Y-37084999D01*
X88274986Y-37084998D01*
X88377697Y-37074505D01*
X88544119Y-37019358D01*
X88544124Y-37019356D01*
X88693345Y-36927315D01*
X88817315Y-36803345D01*
X88909356Y-36654124D01*
X88909358Y-36654119D01*
X88964505Y-36487697D01*
X88964506Y-36487690D01*
X88974999Y-36384986D01*
X88975000Y-36384973D01*
X88975000Y-36374000D01*
X88994685Y-36306961D01*
X89047489Y-36261206D01*
X89099000Y-36250000D01*
X91976000Y-36250000D01*
X92043039Y-36269685D01*
X92088794Y-36322489D01*
X92100000Y-36374000D01*
X92100000Y-37410000D01*
X92750000Y-37410000D01*
X92750000Y-37910000D01*
X92100001Y-37910000D01*
X92100001Y-38626000D01*
X92080316Y-38693039D01*
X92027512Y-38738794D01*
X91976001Y-38750000D01*
X89374000Y-38750000D01*
X89306961Y-38730315D01*
X89261206Y-38677511D01*
X89250000Y-38626000D01*
X89250000Y-37500000D01*
X75374000Y-37500000D01*
X75306961Y-37480315D01*
X75261206Y-37427511D01*
X75250000Y-37376000D01*
X75250000Y-35759500D01*
X75252550Y-35750814D01*
X75252433Y-35750000D01*
X75597933Y-35750000D01*
X75600000Y-35759500D01*
G37*
%TD.AperFunction*%
%TD*%
%TA.AperFunction,Conductor*%
%TO.N,GND*%
G36*
X90193039Y-31769685D02*
G01*
X90238794Y-31822489D01*
X90250000Y-31874000D01*
X90250000Y-33626000D01*
X90230315Y-33693039D01*
X90177511Y-33738794D01*
X90126000Y-33750000D01*
X89098999Y-33750000D01*
X89031960Y-33730315D01*
X88986205Y-33677511D01*
X88974999Y-33626000D01*
X88974999Y-33535028D01*
X88974998Y-33535013D01*
X88964505Y-33432302D01*
X88909358Y-33265880D01*
X88909356Y-33265875D01*
X88817315Y-33116654D01*
X88693345Y-32992684D01*
X88544124Y-32900643D01*
X88544119Y-32900641D01*
X88377697Y-32845494D01*
X88377690Y-32845493D01*
X88274986Y-32835000D01*
X88000000Y-32835000D01*
X88000000Y-33750000D01*
X87500000Y-33750000D01*
X87500000Y-32835000D01*
X87225029Y-32835000D01*
X87225012Y-32835001D01*
X87122302Y-32845494D01*
X86955880Y-32900641D01*
X86955875Y-32900643D01*
X86806654Y-32992684D01*
X86682684Y-33116654D01*
X86590643Y-33265875D01*
X86590641Y-33265880D01*
X86535494Y-33432302D01*
X86535493Y-33432309D01*
X86525000Y-33535013D01*
X86525000Y-33626000D01*
X86505315Y-33693039D01*
X86452511Y-33738794D01*
X86401000Y-33750000D01*
X85098999Y-33750000D01*
X85031960Y-33730315D01*
X84986205Y-33677511D01*
X84974999Y-33626000D01*
X84974999Y-33535028D01*
X84974998Y-33535013D01*
X84964505Y-33432302D01*
X84909358Y-33265880D01*
X84909356Y-33265875D01*
X84817315Y-33116654D01*
X84693345Y-32992684D01*
X84544124Y-32900643D01*
X84544119Y-32900641D01*
X84377697Y-32845494D01*
X84377690Y-32845493D01*
X84274986Y-32835000D01*
X84000000Y-32835000D01*
X84000000Y-33750000D01*
X83500000Y-33750000D01*
X83500000Y-32835000D01*
X83225029Y-32835000D01*
X83225012Y-32835001D01*
X83122302Y-32845494D01*
X82955880Y-32900641D01*
X82955875Y-32900643D01*
X82806654Y-32992684D01*
X82682684Y-33116654D01*
X82590643Y-33265875D01*
X82590641Y-33265880D01*
X82535494Y-33432302D01*
X82535493Y-33432309D01*
X82525000Y-33535013D01*
X82525000Y-33626000D01*
X82505315Y-33693039D01*
X82452511Y-33738794D01*
X82401000Y-33750000D01*
X81098999Y-33750000D01*
X81031960Y-33730315D01*
X80986205Y-33677511D01*
X80974999Y-33626000D01*
X80974999Y-33535028D01*
X80974998Y-33535013D01*
X80964505Y-33432302D01*
X80909358Y-33265880D01*
X80909356Y-33265875D01*
X80817315Y-33116654D01*
X80693345Y-32992684D01*
X80544124Y-32900643D01*
X80544119Y-32900641D01*
X80377697Y-32845494D01*
X80377690Y-32845493D01*
X80274986Y-32835000D01*
X80000000Y-32835000D01*
X80000000Y-33750000D01*
X79500000Y-33750000D01*
X79500000Y-32835000D01*
X79225029Y-32835000D01*
X79225012Y-32835001D01*
X79122302Y-32845494D01*
X78955880Y-32900641D01*
X78955875Y-32900643D01*
X78806654Y-32992684D01*
X78682684Y-33116654D01*
X78590643Y-33265875D01*
X78590641Y-33265880D01*
X78535494Y-33432302D01*
X78535493Y-33432309D01*
X78525000Y-33535013D01*
X78525000Y-33626000D01*
X78505315Y-33693039D01*
X78452511Y-33738794D01*
X78401000Y-33750000D01*
X75624000Y-33750000D01*
X75556961Y-33730315D01*
X75511206Y-33677511D01*
X75500000Y-33626000D01*
X75500000Y-32500000D01*
X72124000Y-32500000D01*
X72056961Y-32480315D01*
X72011206Y-32427511D01*
X72000000Y-32376000D01*
X72000000Y-31874000D01*
X72019685Y-31806961D01*
X72072489Y-31761206D01*
X72124000Y-31750000D01*
X90126000Y-31750000D01*
X90193039Y-31769685D01*
G37*
%TD.AperFunction*%
%TD*%
M02*
