M48
; DRILL file KiCad 10.0.1 date 2026-06-07T20:06:32
; FORMAT={-:-/ absolute / metric / decimal}
; #@! TF.CreationDate,2026-06-07T20:06:32+03:00
; #@! TF.GenerationSoftware,Kicad,Pcbnew,10.0.1
; #@! TF.FileFunction,Plated,1,4,PTH
FMAT,2
METRIC
; #@! TA.AperFunction,Plated,PTH,ViaDrill
T1C0.300
; #@! TA.AperFunction,Plated,PTH,ViaDrill
T2C0.600
; #@! TA.AperFunction,Plated,PTH,ComponentDrill
T3C0.600
; #@! TA.AperFunction,Plated,PTH,ComponentDrill
T4C0.700
; #@! TA.AperFunction,Plated,PTH,ComponentDrill
T5C1.000
%
G90
G05
T1
X36.25Y-101.0
X42.5Y-76.25
X43.0Y-42.0
X43.0Y-44.0
X43.0Y-102.75
X43.0Y-104.5
X43.0Y-106.0
X43.75Y-93.5
X44.5Y-45.5
X44.5Y-86.75
X47.75Y-52.5
X47.75Y-54.5
X49.0Y-68.25
X49.0Y-102.75
X49.5Y-99.75
X50.5Y-100.5
X55.25Y-65.5
X58.5Y-85.75
X59.5Y-91.25
X60.75Y-64.5
X65.0Y-46.0
X65.5Y-87.75
X66.25Y-66.0
X67.25Y-66.25
X68.25Y-66.5
X68.5Y-52.25
X68.75Y-50.0
X69.0Y-58.5
X70.25Y-66.75
X73.0Y-76.75
X73.1Y-78.0
X73.75Y-92.25
X74.25Y-84.25
X74.25Y-85.25
X74.75Y-79.25
X77.481Y-94.019
X77.75Y-90.25
X78.0Y-85.75
X78.75Y-86.25
X79.316Y-86.816
X80.0Y-90.5
X80.481Y-94.019
X81.0Y-73.5
X81.5Y-92.25
X82.25Y-91.5
X83.0Y-91.0
X83.25Y-73.25
X83.799Y-83.451
X84.0Y-46.75
X84.25Y-98.0
X85.0Y-80.75
X85.0Y-81.55
X85.25Y-49.5
X85.25Y-54.0
X85.5Y-79.85
X85.5Y-92.25
X87.25Y-48.5
X88.25Y-92.5
X88.75Y-78.25
X89.25Y-48.0
X89.25Y-68.5
X89.25Y-88.25
X89.75Y-72.5
X90.5Y-57.25
X90.5Y-73.25
X90.75Y-82.25
X91.25Y-47.5
X91.5Y-74.0
X91.5Y-81.5
X92.75Y-74.75
X93.25Y-78.75
X94.0Y-47.75
X96.0Y-46.0
X97.0Y-57.5
X98.0Y-112.5
T2
X34.25Y-54.75
X42.5Y-82.75
X43.5Y-90.0
X46.75Y-95.75
X46.75Y-98.25
X54.5Y-100.0
X56.5Y-37.5
X56.5Y-39.0
X57.0Y-100.0
X57.5Y-56.5
X58.25Y-45.5
X59.0Y-58.0
X59.5Y-56.5
X65.0Y-43.5
X69.75Y-43.5
X71.5Y-38.5
X72.0Y-32.5
X72.75Y-38.5
X73.5Y-32.5
X74.5Y-43.5
X75.75Y-64.25
X76.5Y-76.75
X79.25Y-64.75
X79.25Y-73.25
X97.75Y-90.25
X106.75Y-100.0
X107.26Y-32.26
X108.25Y-38.0
X108.5Y-33.5
X110.0Y-35.0
X110.0Y-38.0
X110.25Y-100.0
X111.375Y-39.375
T3
X31.5Y-64.25
X31.5Y-65.5
X32.0Y-89.375
X32.0Y-90.625
X32.0Y-97.875
X32.0Y-99.125
X32.0Y-100.375
X32.0Y-101.625
X32.0Y-102.875
X32.0Y-104.125
T4
X46.5Y-33.5
X46.5Y-36.04
X46.5Y-38.58
T5
X31.5Y-75.38
X31.5Y-77.92
X31.5Y-80.46
X31.5Y-83.0
X50.19Y-113.115
X52.73Y-113.115
X55.27Y-113.115
X57.81Y-113.115
X95.5Y-75.67
X95.5Y-78.21
X95.5Y-80.75
X95.5Y-83.29
X111.115Y-43.92
X111.115Y-46.46
X111.115Y-49.0
X111.115Y-56.42
X111.115Y-58.96
X111.115Y-61.5
X111.115Y-68.92
X111.115Y-71.46
X111.115Y-74.0
X111.115Y-81.42
X111.115Y-83.96
X111.115Y-86.5
M30
