%TF.GenerationSoftware,KiCad,Pcbnew,10.0.1*%
%TF.CreationDate,2026-06-07T19:57:13+03:00*%
%TF.ProjectId,Magister_work_v1,4d616769-7374-4657-925f-776f726b5f76,rev?*%
%TF.SameCoordinates,Original*%
%TF.FileFunction,Soldermask,Bot*%
%TF.FilePolarity,Negative*%
%FSLAX46Y46*%
G04 Gerber Fmt 4.6, Leading zero omitted, Abs format (unit mm)*
G04 Created by KiCad (PCBNEW 10.0.1) date 2026-06-07 19:57:13*
%MOMM*%
%LPD*%
G01*
G04 APERTURE LIST*
G04 Aperture macros list*
%AMRoundRect*
0 Rectangle with rounded corners*
0 $1 Rounding radius*
0 $2 $3 $4 $5 $6 $7 $8 $9 X,Y pos of 4 corners*
0 Add a 4 corners polygon primitive as box body*
4,1,4,$2,$3,$4,$5,$6,$7,$8,$9,$2,$3,0*
0 Add four circle primitives for the rounded corners*
1,1,$1+$1,$2,$3*
1,1,$1+$1,$4,$5*
1,1,$1+$1,$6,$7*
1,1,$1+$1,$8,$9*
0 Add four rect primitives between the rounded corners*
20,1,$1+$1,$2,$3,$4,$5,0*
20,1,$1+$1,$4,$5,$6,$7,0*
20,1,$1+$1,$6,$7,$8,$9,0*
20,1,$1+$1,$8,$9,$2,$3,0*%
G04 Aperture macros list end*
%ADD10R,1.700000X1.700000*%
%ADD11C,1.700000*%
%ADD12RoundRect,0.225000X0.475000X-0.225000X0.475000X0.225000X-0.475000X0.225000X-0.475000X-0.225000X0*%
%ADD13O,1.400000X0.900000*%
%ADD14C,3.200000*%
%ADD15R,1.300000X1.300000*%
%ADD16C,1.300000*%
G04 APERTURE END LIST*
D10*
%TO.C,J4*%
X111115000Y-68920000D03*
D11*
X111115000Y-71460000D03*
X111115000Y-74000000D03*
%TD*%
D10*
%TO.C,J5*%
X111115000Y-81420000D03*
D11*
X111115000Y-83960000D03*
X111115000Y-86500000D03*
%TD*%
D12*
%TO.C,J9*%
X32000000Y-90625000D03*
D13*
X32000000Y-89375000D03*
%TD*%
D14*
%TO.C,*%
X117750000Y-32500000D03*
%TD*%
%TO.C,*%
X117500000Y-117500000D03*
%TD*%
%TO.C,*%
X32500000Y-32500000D03*
%TD*%
D15*
%TO.C,DA1*%
X46500000Y-33500000D03*
D16*
X46500000Y-36040000D03*
X46500000Y-38580000D03*
%TD*%
D12*
%TO.C,J10*%
X31500000Y-65500000D03*
D13*
X31500000Y-64250000D03*
%TD*%
D10*
%TO.C,J3*%
X111115000Y-56420000D03*
D11*
X111115000Y-58960000D03*
X111115000Y-61500000D03*
%TD*%
D10*
%TO.C,J7*%
X57810000Y-113115000D03*
D11*
X55270000Y-113115000D03*
X52730000Y-113115000D03*
X50190000Y-113115000D03*
%TD*%
D12*
%TO.C,J8*%
X32000000Y-104125000D03*
D13*
X32000000Y-102875000D03*
X32000000Y-101625000D03*
X32000000Y-100375000D03*
X32000000Y-99125000D03*
X32000000Y-97875000D03*
%TD*%
D14*
%TO.C,*%
X32500000Y-117500000D03*
%TD*%
D10*
%TO.C,J6*%
X95500000Y-83290000D03*
D11*
X95500000Y-80750000D03*
X95500000Y-78210000D03*
X95500000Y-75670000D03*
%TD*%
D10*
%TO.C,J2*%
X111115000Y-43920000D03*
D11*
X111115000Y-46460000D03*
X111115000Y-49000000D03*
%TD*%
D10*
%TO.C,J1*%
X31500000Y-83000000D03*
D11*
X31500000Y-80460000D03*
X31500000Y-77920000D03*
X31500000Y-75380000D03*
%TD*%
M02*
